<svg width="101" height="100" viewBox="0 0 101 100" fill="none" xmlns="http://www.w3.org/2000/svg">
<path d="M98.3822 12.4896H87.4804C86.9342 12.5165 86.4276 12.7853 86.0976 13.225C85.7675 13.6648 85.6468 14.2293 85.769 14.766L84.4855 8.62532C83.8177 6.13872 82.3524 3.94547 80.3192 2.38526C78.2855 0.825026 75.797 -0.0136118 73.2412 0.000188434H27.6846C25.1267 -0.0144435 22.636 0.82343 20.599 2.38368C18.5629 3.94314 17.0944 6.13793 16.4227 8.62532L15.1736 14.6629C15.2843 14.1285 15.1583 13.5725 14.8305 13.1389C14.502 12.7053 14.0023 12.4365 13.4622 12.4034H2.54358C1.59849 12.4034 0.832169 13.1751 0.832169 14.1284V21.0285C0.821473 21.8826 1.43269 22.6165 2.27006 22.7536L13.0863 24.5648L12.7609 26.152V26.1513C8.7642 28.1566 6.09714 32.121 5.7265 36.6053C5.7265 36.7085 4.78523 47.0586 4.83641 47.1449C4.8876 47.2312 4.83641 57.4951 4.83641 57.4951V61.0829H4.83718C4.83718 62.6224 5.44229 64.0979 6.52032 65.1875C7.59835 66.2771 9.06063 66.8917 10.5872 66.8964H20.5822C22.1087 66.8917 23.571 66.2772 24.6491 65.1875C25.7272 64.0978 26.3322 62.6222 26.3322 61.0829V59.3756H42.5218V96.5159H36.3607C35.4156 96.5159 34.6493 97.2883 34.6493 98.2409C34.6493 99.1935 35.4156 99.9659 36.3607 99.9659H64.5647C65.5098 99.9659 66.2761 99.1935 66.2761 98.2409C66.2761 97.2883 65.5098 96.5159 64.5647 96.5159H58.4204V59.3756H74.61V61.2385C74.61 62.7771 75.2158 64.2534 76.2931 65.343C77.3711 66.4327 78.8342 67.0473 80.3608 67.0519H90.3558H90.355C91.8823 67.0473 93.3446 66.4327 94.4227 65.343C95.5007 64.2534 96.1058 62.777 96.1058 61.2385V57.6506V47.3005C96.1058 47.3005 95.1814 36.864 95.2157 36.7609V36.7601C94.8437 32.248 92.1468 28.2659 88.1135 26.2721L87.788 24.6849L98.6043 22.8737C99.4417 22.7374 100.053 22.0034 100.042 21.1486V14.2485C100.061 13.3029 99.3202 12.5174 98.382 12.4896L98.3822 12.4896ZM11.7498 20.9592L4.25404 19.717V15.9397H11.7498V20.9592ZM54.9966 96.5153H45.9261V59.375H54.9966V96.5153ZM56.708 55.9249H39.0116V52.2846H61.9112V55.9241L56.708 55.9249ZM91.7752 37.036L92.6821 47.3862V61.1864C92.6821 62.4847 91.6422 63.5399 90.3542 63.5498H80.3599C79.0718 63.5397 78.032 62.4847 78.032 61.1864V59.3751H81.917C82.8621 59.3751 83.6284 58.6027 83.6284 57.6501C83.6284 56.6975 82.8621 55.925 81.917 55.925H65.334V50.5597C65.334 50.1023 65.1537 49.6641 64.8328 49.3399C64.5112 49.0164 64.0764 48.8347 63.6226 48.8347H37.3002C36.3551 48.8347 35.5888 49.6071 35.5888 50.5597V55.9243L19.0057 55.925C18.0606 55.925 17.2943 56.6974 17.2943 57.65C17.2943 58.6027 18.0606 59.3751 19.0057 59.3751H22.8907V61.2379C22.8907 62.5363 21.8509 63.5915 20.5628 63.6013H10.5686C9.28045 63.5913 8.24068 62.5363 8.24068 61.2379V47.4377L9.14757 37.0876C9.35767 34.725 10.4395 32.5278 12.1792 30.9313C13.9196 29.3341 16.1904 28.4532 18.5435 28.4625H82.3799C84.7247 28.4517 86.9892 29.3257 88.7282 30.9122C90.4663 32.4986 91.5535 34.6826 91.7758 37.0359L91.7752 37.036ZM18.5446 24.9608H16.5421L19.7594 9.59115V9.59038C20.2323 7.84148 21.2653 6.29903 22.6985 5.2031C24.1318 4.10801 25.8845 3.52198 27.6837 3.53584H73.2404C75.0167 3.51351 76.7518 4.07799 78.1798 5.14303C79.6077 6.20884 80.6499 7.71598 81.1473 9.43548L84.3821 24.9607L18.5446 24.9608ZM96.6708 19.7858L89.1918 21.0279V15.9392H96.6708V19.7858Z" fill="black"/>
<path d="M67.1487 39.0729C65.5572 42.7471 69.2192 46.8702 72.933 46.7661H83.9717C86.2554 46.6368 88.2976 45.2891 89.3283 43.2313C90.3582 41.1729 90.2215 38.7171 88.9685 36.7878C87.7155 34.8595 85.5365 33.7514 83.2528 33.8807L70.2461 36.5376V36.5368C68.8617 36.8156 67.7034 37.7644 67.1487 39.0727L67.1487 39.0729ZM70.9138 39.9185L83.8348 37.2793C87.5655 37.193 87.5999 43.2475 83.9716 43.3169L72.9329 43.3161C71.9801 43.3153 71.0969 42.8109 70.6058 41.9885C70.1091 41.3154 69.9036 40.2288 70.9992 39.9184L70.9138 39.9185Z" fill="black"/>
<path d="M31.6372 36.5358L18.6305 33.8788H18.4426C9.88557 33.4129 9.52647 46.5232 17.9292 46.7818H28.9678C34.5979 46.9374 37.9863 38.3647 31.6372 36.5356L31.6372 36.5358ZM31.6372 41.5383C31.4119 42.042 31.0489 42.4717 30.592 42.7766C30.1344 43.0816 29.6011 43.251 29.0533 43.2634H17.946C14.3008 43.2634 14.3352 37.1564 18.0827 37.2258L30.9871 39.865C31.3111 39.9789 31.5624 40.2408 31.6641 40.5711C31.7649 40.9015 31.7045 41.2604 31.5006 41.5384L31.6372 41.5383Z" fill="black"/>
</svg>
