<svg width="60" height="97" viewBox="0 0 60 97" fill="none" xmlns="http://www.w3.org/2000/svg">
<path d="M39.6238 51.4861H2.44531V89.6785H39.6238V62.7556H42.4525V58.3916H39.6238V51.4861Z" fill="black"/>
<path d="M40.3717 92.5829H1.7095C1.10965 92.5829 0.618164 93.0776 0.618164 93.6829V95.8828C0.618164 96.4882 1.10895 96.9828 1.7095 96.9828H40.3717C40.9722 96.9828 41.463 96.4882 41.463 95.8828V93.6829C41.463 93.0783 40.9722 92.5829 40.3717 92.5829Z" fill="black"/>
<path d="M1.71145 48.5853H40.3737C40.9742 48.5853 41.465 48.0906 41.465 47.4853V44.9549C41.465 44.3502 40.9742 43.8549 40.3737 43.8549L1.71145 43.8563C1.1116 43.8563 0.620117 44.351 0.620117 44.9563V47.4867C0.620117 48.0906 1.1109 48.5853 1.71145 48.5853V48.5853Z" fill="black"/>
<path d="M18.8606 27.2802V30.1511H12.7413C11.8177 30.1511 10.99 30.7522 10.6823 31.6253L7.02588 40.9547H35.0444L31.4076 31.6253C31.0805 30.7522 30.2723 30.1511 29.3487 30.1511H23.2294V27.2802H18.8606ZM13.6843 39.5389C12.7412 39.5389 12.0099 38.7828 12.0099 37.8512C12.0099 36.9006 12.7412 36.1444 13.6843 36.1444C14.6078 36.1444 15.3587 36.9006 15.3587 37.8512C15.3587 38.7828 14.6078 39.5389 13.6843 39.5389ZM14.4156 33.2545C14.4156 32.3236 15.1657 31.5668 16.09 31.5668C17.0135 31.5668 17.7644 32.3229 17.7644 33.2545C17.7644 34.2051 17.0142 34.9422 16.09 34.9422C15.1657 34.9415 14.4156 34.2044 14.4156 33.2545ZM18.5914 39.5389C17.6679 39.5389 16.917 38.7828 16.917 37.8512C16.917 36.9006 17.6672 36.1444 18.5914 36.1444C19.515 36.1444 20.2658 36.9006 20.2658 37.8512C20.2651 38.7828 19.515 39.5389 18.5914 39.5389ZM19.3611 33.2545C19.3611 32.3236 20.1113 31.5668 21.0355 31.5668C21.9591 31.5668 22.7099 32.3229 22.7099 33.2545C22.7099 34.2051 21.9598 34.9422 21.0355 34.9422C20.1113 34.9415 19.3611 34.2044 19.3611 33.2545ZM30.0794 37.8511C30.0794 38.782 29.3293 39.5388 28.405 39.5388C27.4815 39.5388 26.7306 38.7827 26.7306 37.8511C26.7306 36.9005 27.4808 36.1443 28.405 36.1443C29.3293 36.1443 30.0794 36.9005 30.0794 37.8511ZM26 31.5667C26.9236 31.5667 27.6744 32.3228 27.6744 33.2544C27.6744 34.205 26.9243 34.9421 26 34.9421C25.0765 34.9421 24.3256 34.205 24.3256 33.2544C24.3256 32.3235 25.0765 31.5667 26 31.5667ZM23.4985 36.1443C24.4221 36.1443 25.1729 36.9004 25.1729 37.8511C25.1729 38.782 24.4227 39.5388 23.4985 39.5388C22.575 39.5388 21.8241 38.7827 21.8241 37.8511C21.8241 36.9004 22.5743 36.1443 23.4985 36.1443Z" fill="black"/>
<path d="M40.3575 0H1.72217V24.3737H40.3575V0ZM35.881 20.8379H6.19798V3.53799H35.881V20.8379Z" fill="black"/>
<path d="M46.9935 60.1669H45.3359V62.1336H47.2871L49.3768 63.7523L50.8618 63.4909V61.5417L49.1524 61.8376L46.9935 60.1669Z" fill="black"/>
<path d="M46.9935 68.6782H45.3359V70.6449H47.2871L49.3768 72.2812L50.8618 72.0028V70.0536L49.1524 70.3665L46.9935 68.6782Z" fill="black"/>
<path d="M46.9935 63.0046H45.3359V64.9713H47.2871L49.3768 66.59L50.8618 66.3292V64.3793L49.1524 64.6929L46.9935 63.0046Z" fill="black"/>
<path d="M46.9935 65.8405H45.3359V67.8072H47.2871L49.3768 69.4435L50.8618 69.1652V67.2152L49.1524 67.5288L46.9935 65.8405Z" fill="black"/>
<path d="M46.9935 57.3115H45.3359V59.2959H47.2871L49.3768 60.9146L50.8618 60.6531V58.7039L49.1524 58.9999L46.9935 57.3115Z" fill="black"/>
<path d="M57.2008 47.9302H59.0613C58.8585 47.196 58.2167 46.6421 57.426 46.6421H53.627V49.3051L55.1119 49.5665L57.2008 47.9302Z" fill="black"/>
<path d="M45.4259 47.9303H47.2876L49.3773 49.5665L50.8622 49.3051V46.6421H47.0631C46.2577 46.6421 45.6243 47.196 45.4258 47.9302L45.4259 47.9303Z" fill="black"/>
<path d="M46.9935 54.4736H45.3359V56.4411H47.2871L49.3768 58.0773L50.8618 57.8159V55.8667L49.1524 56.1627L46.9935 54.4736Z" fill="black"/>
<path d="M46.9935 51.6377H45.3359V53.6037H47.2871L49.3768 55.2399L50.8618 54.9792V53.0293L49.1524 53.3252L46.9935 51.6377Z" fill="black"/>
<path d="M46.9935 48.8H45.3359V50.7667H47.2871L49.3768 52.403L50.8618 52.1423V50.1756L49.1524 50.4885L46.9935 48.8Z" fill="black"/>
<path d="M55.336 67.529L53.626 67.2154V69.1654L55.1109 69.4437L57.2006 67.8075H59.1518V65.8408H57.4942L55.336 67.529Z" fill="black"/>
<path d="M55.336 56.1641L53.626 55.8682V57.8174L55.1109 58.0788L57.2006 56.4425H59.1518V54.4751H57.4942L55.336 56.1641Z" fill="black"/>
<path d="M55.336 58.9999L53.626 58.7039V60.6531L55.1109 60.9146L57.2006 59.2959H59.1518V57.3115H57.4942L55.336 58.9999Z" fill="black"/>
<path d="M55.336 53.3263L53.626 53.0303V54.9803L55.1109 55.241L57.2006 53.6047H59.1518V51.6387H57.4942L55.336 53.3263Z" fill="black"/>
<path d="M55.336 50.4887L53.626 50.1758V52.1425L55.1109 52.4033L57.2006 50.767H59.1518V48.8002H57.4942L55.336 50.4887Z" fill="black"/>
<path d="M55.336 61.8377L53.626 61.5417V63.4909L55.1109 63.7524L57.2006 62.1337H59.1518V60.167H57.4942L55.336 61.8377Z" fill="black"/>
<path d="M55.3358 73.2045L53.6265 72.8909V74.4926H57.4256C58.375 74.4926 59.1524 73.709 59.1524 72.7521V71.5161H57.4948L55.3358 73.2045Z" fill="black"/>
<path d="M55.336 64.6914L53.626 64.3778V66.3278L55.1109 66.5885L57.2006 64.9698H59.1518V63.0031H57.4942L55.336 64.6914Z" fill="black"/>
<path d="M46.9935 71.5141H45.3359V72.7501C45.3359 73.7078 46.0959 74.4907 47.0628 74.4907H50.8619V72.8889L49.1525 73.2032L46.9935 71.5141Z" fill="black"/>
<path d="M55.336 70.3667L53.626 70.0538V72.003L55.1109 72.2814L57.2006 70.6451H59.1518V68.6784H57.4942L55.336 70.3667Z" fill="black"/>
<path d="M51.7261 46.6426H52.7622V74.4926H51.7261V46.6426Z" fill="black"/>
<path d="M45.3364 48.3815C45.3364 48.2216 45.3861 48.0764 45.4259 47.9291H45.4056C45.3532 48.0687 45.3364 48.2251 45.3364 48.3815Z" fill="black"/>
<path d="M59.0819 47.9307H59.0596C59.1008 48.0779 59.1512 48.2231 59.1512 48.3831C59.1512 48.2266 59.1337 48.0702 59.0819 47.9307Z" fill="black"/>
</svg>
