<svg width="169" height="81" viewBox="0 0 169 81" fill="none" xmlns="http://www.w3.org/2000/svg">
<path d="M149.552 45.7024C149.774 45.3104 150.267 45.17 150.659 45.391C151.051 45.6121 151.191 46.1055 150.97 46.4975L141.699 63.0177C141.478 63.4098 140.984 63.5502 140.592 63.3292C140.2 63.1081 140.06 62.6147 140.281 62.2227L149.552 45.7024ZM151.566 53.4589C151.776 53.0632 152.266 52.9093 152.662 53.1194C153.058 53.3294 153.211 53.8192 153.001 54.2149L149.237 61.3263C149.027 61.722 148.538 61.8759 148.142 61.6658C147.746 61.4558 147.592 60.966 147.802 60.5703L151.566 53.4589ZM50.0782 38.5216C50.0917 42.4468 50.1234 54.983 49.9341 55.76C49.79 56.3584 49.4163 56.9641 49.0169 57.6126C48.6811 58.1622 48.3196 58.7472 48.1376 59.2895C47.8714 60.0943 48.1376 60.9113 50.099 61.5586L50.6522 61.7405C50.6559 62.7103 50.6449 63.6775 50.6388 64.6472L53.433 64.7315C53.4685 63.8179 53.5027 62.8995 53.5454 61.9861L54.0669 61.8041C56.2872 61.0335 56.5351 60.1895 56.242 59.3456C56.0954 58.9255 55.8353 58.4602 55.5764 57.9974C55.188 57.3 54.8058 56.6173 54.68 55.9004C54.5395 55.1054 54.4247 43.0807 54.4003 40.4026C54.0962 40.2694 53.8019 40.1327 53.4904 39.9934C52.5977 39.5867 51.5926 39.1324 50.3005 38.6134C50.2236 38.5816 50.1466 38.5535 50.0697 38.5218L50.0782 38.5216ZM56.0344 41.0667C56.0479 42.52 56.0735 45.0895 56.1077 47.6739C58.2791 48.3285 60.1343 49.4386 61.4546 50.8394C62.8725 52.3379 63.6786 54.1697 63.6187 56.1372C63.5552 58.228 62.5257 60.1075 60.8452 61.561C59.3565 62.8494 57.3573 63.7984 55.0784 64.2503L54.9942 66.3997L49.0098 66.2214L49.0232 64.2637C46.4671 63.774 44.2394 62.6699 42.6434 61.1922C40.9385 59.6131 39.9431 57.603 40.0066 55.4314C40.0701 53.3552 41.0887 51.4855 42.7447 50.0357C44.2188 48.7473 46.2082 47.791 48.4699 47.3294V44.2371C48.0876 44.4472 47.6785 44.6719 47.2865 44.8881C46.4035 45.3717 45.606 45.8089 45.4863 45.8858C42.0997 48.0744 36.7885 50.2276 31.0558 51.9896C25.1093 53.8142 18.6916 55.2283 13.4951 55.8267C13.3021 56.3275 13.1104 56.8318 12.9138 57.3326C11.3725 61.265 9.66756 65.2038 7.78074 68.9858C22.3016 71.2794 38.5361 71.5811 53.1457 71.8497C54.5221 71.8742 55.8838 71.9023 57.1514 71.9267C83.3292 72.4408 113.672 71.9133 135.272 69.7662C143.796 68.9187 150.946 67.8232 155.922 66.4431C160.54 65.162 163.17 63.7429 163.072 62.1917C163.065 62.1038 163.051 62.0134 163.027 61.9182C160.04 50.9024 157.778 43.6112 155.235 35.4286C154.339 32.5427 153.407 29.5421 152.319 25.9638C148.54 13.558 141.267 13.2979 127.208 12.8008C126.511 12.7764 125.798 12.752 125.065 12.7239C117.187 12.4295 93.1907 11.7468 69.6828 11.582C56.5163 11.4904 43.4974 11.5576 33.5346 11.9459C33.6885 12.0302 33.8424 12.1108 33.9963 12.1914C34.8927 12.6433 35.761 13.0744 36.6159 13.4945C40.9086 15.6171 44.8338 17.5564 49.6029 21.0506C49.7251 21.0261 49.8545 21.0017 49.995 20.9773C50.1488 20.9492 50.293 20.9248 50.4297 20.904L50.5238 18.8095L56.4947 18.9878L56.5057 21.1727C57.8014 21.4878 59.002 21.9641 60.067 22.5662C61.1454 23.1792 62.0809 23.9242 62.8295 24.7657C63.6979 24.8671 64.5662 24.9904 65.4272 25.1687C69.1461 25.9467 72.2479 27.2168 75.687 28.625C77.2869 29.2797 78.9648 29.9697 80.8663 30.667C81.4586 30.8844 82.4247 31.3045 83.3846 31.7173C84.4178 32.1655 85.4363 32.6064 85.8845 32.7578C85.7233 32.4708 85.5804 32.1728 85.4571 31.8724C85.1102 31.0077 84.9356 30.0869 84.9637 29.138C85.0272 27.002 86.1019 25.0908 87.8422 23.6226C89.4739 22.2499 91.6978 21.2728 94.2112 20.8979L94.3052 18.8071L100.276 18.9854L100.287 21.1703C102.62 21.7369 104.636 22.819 106.093 24.2271C107.707 25.7855 108.638 27.7394 108.576 29.8438C108.527 31.4376 107.918 32.9043 106.888 34.1611C105.992 35.2505 104.776 36.175 103.341 36.8675C103.471 37.1264 103.59 37.428 103.667 37.8298C103.821 38.6322 103.654 39.3357 103.521 39.8926C103.482 40.0538 103.448 40.1942 103.437 40.309C103.412 40.5337 103.433 40.8549 103.454 41.2164C103.489 41.7305 103.527 42.3155 103.461 42.9677C103.343 44.1267 102.653 44.9315 102.315 45.3248C102.274 45.3737 102.242 45.4127 102.231 45.4262C102.154 45.5239 102.042 45.6326 101.916 45.7376C101.723 45.8951 101.468 46.0698 101.243 46.1895C100.848 46.3995 100.427 46.4728 100.092 46.2945C100.084 46.7317 100.078 47.2153 100.071 47.7234C102.165 48.3853 103.958 49.4747 105.243 50.8327C106.661 52.3312 107.467 54.163 107.407 56.1305C107.343 58.2214 106.314 60.1008 104.633 61.5543C103.145 62.8428 101.146 63.7917 98.8667 64.2436L98.7825 66.393L92.7981 66.2147L92.8115 64.257C90.2554 63.7673 88.0277 62.6632 86.4317 61.1855C84.7268 59.6064 83.7314 57.5963 83.7949 55.4247C83.8584 53.3485 84.877 51.4788 86.533 50.029C88.0914 48.671 90.2163 47.6793 92.6334 47.2519C92.6896 46.0514 92.7347 45.0145 92.7628 44.4051L92.7103 44.3941C92.0655 44.2781 91.3486 44.1205 90.6402 43.963C89.8452 43.7847 89.0294 43.5954 88.3113 43.4232C87.4393 43.2168 86.7603 43.0446 86.4342 42.9578C85.7515 42.7722 85.0444 42.6391 84.3226 42.5414C83.5837 42.4437 82.8168 42.3838 82.0291 42.3558C79.6695 42.2678 77.0817 42.4437 74.4268 42.622C70.3514 42.8992 66.121 43.1862 62.0869 42.5585C60.7594 42.3521 59.4673 42.0859 58.2461 41.7537C57.4938 41.5473 56.7549 41.3165 56.0404 41.0539L56.0344 41.0667ZM56.1566 51.0739C56.1957 53.459 56.2408 55.3534 56.2897 55.6195C56.3703 56.075 56.6817 56.6343 57.0005 57.2059C57.0603 57.3109 57.1189 57.4159 57.1751 57.5246C57.5574 57.2132 57.8786 56.8663 58.124 56.4914C58.4709 55.9663 58.67 55.3813 58.6883 54.7682C58.7127 53.917 58.3866 53.1048 57.8029 52.405C57.3791 51.8933 56.8185 51.4427 56.1542 51.0739L56.1566 51.0739ZM57.8517 59.0476C58.1534 60.0601 58.1033 61.0432 57.1898 61.9188C58.1802 61.4987 59.0559 60.9626 59.785 60.3324C61.126 59.1734 61.9491 57.6993 61.9979 56.0886C62.0431 54.5754 61.3995 53.144 60.2711 51.9497C59.4797 51.1095 58.4465 50.3877 57.246 49.8345C57.9531 50.2693 58.5625 50.7871 59.0498 51.3684C59.8827 52.3662 60.3492 53.5496 60.3101 54.8138C60.282 55.7419 59.9877 56.6103 59.4772 57.3809C59.0644 58.011 58.5112 58.5716 57.8529 59.0479L57.8517 59.0476ZM47.7983 62.2766C46.3694 61.3485 46.1947 60.1931 46.5306 58.9989C45.788 58.47 45.175 57.8435 44.7341 57.1425C44.1943 56.2876 43.9036 55.3326 43.9354 54.3238C43.9744 53.0488 44.5167 51.8898 45.4168 50.9372C46.1947 50.1178 47.245 49.4522 48.4663 49.015V48.9905C46.6173 49.4143 45.01 50.2094 43.8119 51.2523C42.4881 52.4077 41.6722 53.8756 41.6271 55.4718C41.5782 57.1523 42.3732 58.7315 43.7423 59.9989C44.7999 60.976 46.1897 61.7673 47.797 62.2754L47.7983 62.2766ZM47.2096 57.476C47.3501 57.2305 47.4966 56.9923 47.6407 56.7578C47.9705 56.2217 48.2782 55.7246 48.3588 55.3815C48.415 55.147 48.4468 53.2491 48.4602 50.7662C47.7177 51.102 47.0801 51.5405 46.5941 52.0583C45.9602 52.7239 45.5816 53.5189 45.5572 54.3689C45.5365 55.0382 45.7355 55.6855 46.1104 56.2741C46.3877 56.7113 46.7614 57.118 47.2132 57.4746L47.2096 57.476ZM48.4699 42.3811C48.4663 40.4173 48.459 38.7709 48.4565 37.9381C47.5003 37.623 46.4573 37.3152 45.3642 37.0172C44.2578 36.7156 43.1122 36.4322 41.9714 36.166C41.7259 36.26 41.478 36.3553 41.2325 36.4456C41.478 37.4959 42.0764 38.9114 42.8226 40.3049C43.603 41.7619 44.5312 43.1627 45.3751 44.0836C45.7012 43.9016 46.0969 43.6879 46.5097 43.4607C47.207 43.0785 47.952 42.6694 48.471 42.3787L48.4699 42.3811ZM27.4604 31.0182C28.3849 31.2882 29.3473 30.9132 30.2584 30.1218C31.3575 29.1692 32.359 27.6463 33.1503 25.878C33.9527 24.0851 34.523 22.0543 34.7465 20.1171C35.069 17.3302 34.6733 14.7912 33.1882 13.6003C32.2112 13.0996 31.2659 12.4792 30.2779 11.832C28.6072 10.7365 26.8047 9.55182 24.5146 8.78852C22.7217 8.19378 20.7994 7.34253 19.3253 6.10295C17.7633 4.79009 16.6995 3.06688 16.7655 0.787965C16.7789 0.339755 17.1502 -0.010753 17.5984 0.000252202C18.0466 0.0136863 18.3971 0.384966 18.3861 0.833176C18.3336 2.53197 19.1567 3.84483 20.3682 4.85599C21.366 5.69257 22.6227 6.33741 23.8905 6.83811C33.9783 6.13465 49.243 5.92093 65.0879 5.96245C91.0704 6.0284 118.569 6.77092 127.289 7.11777C128.119 7.14952 128.84 7.17762 129.547 7.2057C145.171 7.79801 153.257 8.10578 157.581 23.2642C158.797 27.5252 159.746 30.7824 160.655 33.916C163.362 43.216 165.771 51.5011 168.895 63.7994C168.979 64.1255 169.011 64.4503 168.997 64.7764C168.846 68.1167 163.23 70.6348 154.08 72.4691C145.269 74.2375 133.078 75.4771 119.351 76.2759C78.7884 78.6354 24.7037 77.1588 5.06322 74.0873C3.92866 76.0732 2.73425 77.9882 1.47748 79.8053C1.22223 80.1729 0.71784 80.267 0.35023 80.0117C-0.0173794 79.7565 -0.111425 79.2521 0.143832 78.8845C4.63687 72.3786 8.34455 64.5553 11.4088 56.7404C14.4827 48.8901 16.8961 41.064 18.7901 34.5681C20.2361 29.6133 21.5489 28.9161 23.8609 29.5926C24.4251 29.7575 25.0089 30.0054 25.6818 30.2924C26.2143 30.5196 26.7993 30.7687 27.4673 31.0142L27.4604 31.0182ZM35.9653 14.9842C36.4831 16.5108 36.5845 18.3708 36.361 20.3029C36.1192 22.3937 35.5 24.5921 34.6317 26.5387C33.7487 28.5098 32.6044 30.2366 31.3195 31.3506C31.0362 31.5961 30.7456 31.8122 30.4512 31.9979C32.531 32.5926 34.4325 32.9639 36.5894 33.384C37.1952 33.5025 37.829 33.6258 38.8305 33.8286H38.8341C41.1106 34.2902 43.5507 34.8434 45.788 35.4529C47.6859 35.967 49.4654 36.5239 50.9148 37.1089C52.2704 37.6512 53.278 38.1104 54.1682 38.517C54.6616 38.7418 55.1244 38.9518 55.5372 39.1264C56.5106 39.5429 57.5646 39.9007 58.6709 40.2012C59.8689 40.5273 61.0976 40.7825 62.3335 40.9755C66.1744 41.5739 70.3245 41.2906 74.3191 41.0207C77.0047 40.8387 79.6207 40.6604 82.0853 40.7544C82.9219 40.7862 83.7413 40.8485 84.5327 40.9535C84.9882 41.0133 85.4328 41.0866 85.8639 41.1745C87.7544 41.2796 88.8548 40.5615 89.3408 39.5747C89.5436 39.1619 89.6486 38.6954 89.6706 38.2166C89.6913 37.7269 89.6181 37.2286 89.4642 36.7559C89.132 35.7337 88.4273 34.8788 87.4821 34.6553C87.0339 34.5992 86.5967 34.5393 86.1765 34.477L85.8468 34.4318C85.3778 34.3622 84.0674 33.7943 82.7411 33.2203C81.841 32.832 80.9348 32.4363 80.3071 32.2055C78.4507 31.5228 76.7213 30.8156 75.0727 30.1391C71.7105 28.7627 68.6782 27.5194 65.0999 26.7709C63.6429 26.4668 62.1481 26.3264 60.6632 26.1896C58.8142 26.0186 56.9799 25.8464 55.2112 25.3738C54.934 25.3005 54.5921 25.2235 54.2379 25.1466C52.9348 24.8596 51.4851 24.5445 50.2285 23.5675C50.071 23.4454 49.9171 23.3257 49.7632 23.2072L49.7314 23.2316L49.6337 23.1132C44.5348 19.2332 40.4523 17.2095 35.9664 14.9928L35.9653 14.9842ZM94.3739 44.6293C94.2653 47.0951 93.9013 54.9942 93.7193 55.7576C93.5752 56.3561 93.2015 56.9618 92.8021 57.6103C92.4663 58.1599 92.1048 58.7449 91.9228 59.2871C91.6566 60.092 91.9192 60.909 93.8842 61.5563L94.4374 61.7382C94.4411 62.7079 94.4301 63.6752 94.424 64.6449L97.2183 64.7292C97.2537 63.8156 97.2879 62.8972 97.3306 61.9837L97.8521 61.8018C100.072 61.0312 100.32 60.1872 100.027 59.3433C99.8831 58.9232 99.6205 58.4579 99.3616 57.9951C98.9732 57.2977 98.591 56.615 98.4652 55.8981C98.3247 55.1031 98.4517 46.57 98.4859 44.4828C98.315 44.4962 98.1293 44.5145 97.9364 44.5353C97.057 44.6232 96.0141 44.7246 94.8624 44.6611C94.6976 44.6501 94.5327 44.6403 94.369 44.6257L94.3739 44.6293ZM100.03 51.1289C100.013 53.3492 100.016 55.3068 100.071 55.622C100.152 56.0775 100.463 56.6368 100.782 57.2084C100.842 57.3134 100.9 57.4184 100.957 57.5271C101.339 57.2157 101.66 56.8689 101.906 56.4939C102.252 55.9688 102.452 55.3838 102.47 54.7707C102.494 53.9195 102.168 53.1073 101.584 52.4075C101.178 51.9203 100.649 51.4867 100.026 51.1289L100.03 51.1289ZM101.637 59.0501C101.939 60.0626 101.888 61.0457 100.975 61.9213C101.965 61.5012 102.841 60.9651 103.57 60.3349C104.911 59.1759 105.734 57.7018 105.783 56.0911C105.828 54.5779 105.185 53.1465 104.056 51.9522C103.265 51.112 102.232 50.3902 101.031 49.837C101.738 50.2718 102.348 50.7896 102.835 51.3709C103.668 52.3687 104.134 53.5521 104.095 54.8163C104.067 55.7445 103.773 56.6128 103.262 57.3834C102.85 58.0135 102.296 58.5741 101.638 59.0504L101.637 59.0501ZM91.5834 62.2791C90.1546 61.351 89.9799 60.1956 90.3158 59.0014C89.5732 58.4725 88.9602 57.846 88.5193 57.145C87.9795 56.2901 87.6888 55.3351 87.7205 54.3263C87.7596 53.0513 88.3019 51.8923 89.202 50.9397C90.0214 50.0751 91.1389 49.385 92.4444 48.9503C90.5148 49.3631 88.838 50.1764 87.6021 51.2548C86.2783 52.4101 85.4625 53.8781 85.4173 55.4743C85.3684 57.1548 86.1635 58.7339 87.5325 60.0014C88.5901 60.9784 89.98 61.7698 91.5872 62.2779L91.5834 62.2791ZM90.9948 57.4785C91.1352 57.233 91.2818 56.9948 91.4259 56.7603C91.7557 56.2242 92.0634 55.7271 92.144 55.384C92.221 55.0652 92.3468 52.9854 92.4664 50.6749C91.6298 51.0217 90.9154 51.4944 90.3756 52.061C89.7418 52.7266 89.3632 53.5217 89.3387 54.3717C89.318 55.0409 89.517 55.6882 89.892 56.2769C90.1692 56.7141 90.5429 57.1208 90.9948 57.4774L90.9948 57.4785ZM99.1186 30.3123C99.1992 29.5869 99.2969 28.8138 99.3958 28.401C99.5399 27.8026 99.9136 27.1968 100.313 26.5483C100.649 25.9987 101.01 25.4137 101.192 24.8715C101.459 24.0667 101.192 23.2496 99.231 22.6024L98.6777 22.4204L98.6704 20.5641L95.8627 20.4798L95.7858 22.1713L95.2643 22.3532C93.044 23.1239 92.7961 23.9678 93.0892 24.8117C93.2333 25.2318 93.4959 25.6971 93.7548 26.16C94.1431 26.8573 94.5254 27.54 94.6512 28.2569C94.7672 28.9042 94.8295 30.5333 94.8539 31.3626C96.3146 30.526 97.7154 29.8494 99.1222 30.3086L99.1186 30.3123ZM93.9368 31.8951L93.2895 31.9085C93.3982 31.9647 93.5142 32.0172 93.6254 32.0697C93.7267 32.0099 93.8318 31.9537 93.9331 31.8951H93.9368ZM93.2431 31.8841C93.2358 31.6142 93.1772 29.2864 93.044 28.5366C92.9634 28.081 92.652 27.5217 92.3333 26.9501C92.0988 26.5263 91.8606 26.0989 91.6713 25.647C91.4051 25.9096 91.1779 26.1929 90.9959 26.4946C90.7016 26.9843 90.5306 27.5241 90.5123 28.0847C90.4879 28.8724 90.7676 29.6259 91.272 30.2903C91.7482 30.9132 92.4236 31.4603 93.2394 31.8841H93.2431ZM91.3281 23.8272C91.3452 23.666 91.377 23.5048 91.4258 23.3472C90.4635 23.7502 89.6086 24.2644 88.8905 24.8665C87.497 26.0401 86.6384 27.5423 86.5896 29.1872C86.5688 29.909 86.7019 30.6088 86.9682 31.2744C87.2234 31.9119 87.6057 32.5213 88.0918 33.0807C89.3704 33.2175 90.6894 33.2516 91.7935 32.9158C91.0717 32.4505 90.4599 31.8936 89.9835 31.2695C89.2581 30.3169 88.8563 29.2105 88.8942 28.0343C88.9186 27.183 89.1714 26.3782 89.6049 25.6564C90.0214 24.9591 90.61 24.3399 91.3281 23.8184V23.8272ZM102.936 23.9151C102.94 23.9603 102.944 24.0091 102.947 24.0556C103.654 24.6088 104.232 25.2597 104.632 25.9815C105.069 26.7656 105.297 27.6278 105.273 28.5266C105.241 29.5415 104.888 30.4904 104.285 31.3173C103.795 31.9865 103.146 32.5739 102.373 33.0539C102.576 33.4533 102.703 33.9711 102.681 34.71C102.674 34.9591 102.685 35.1716 102.706 35.3646V35.3756C103.9 34.7906 104.905 34.0236 105.637 33.1309C106.441 32.1502 106.918 31.012 106.957 29.8006C107.006 28.1763 106.259 26.6422 104.967 25.3954C104.39 24.8385 103.703 24.3378 102.929 23.9103L102.936 23.9151ZM102.544 25.8728C102.31 26.4016 101.995 26.9133 101.693 27.3957C101.363 27.9319 101.056 28.4289 100.975 28.7721C100.859 29.2484 100.733 30.4672 100.653 31.2965C100.741 31.3807 100.824 31.4711 100.912 31.57C100.992 31.6616 101.104 31.752 101.219 31.8473C101.951 31.4442 102.553 30.9399 102.973 30.3622C103.386 29.7955 103.628 29.158 103.648 28.4814C103.666 27.883 103.508 27.3017 103.211 26.7692C103.037 26.4541 102.808 26.1524 102.538 25.8728L102.544 25.8728ZM43.9732 44.9283C43.0902 43.9061 42.173 42.5016 41.4024 41.0655C40.6427 39.6476 40.0187 38.1772 39.7109 36.9927C36.6504 38.0503 33.5446 38.8796 30.445 39.5036C26.4503 40.306 22.4653 40.7603 18.5888 40.9142C17.3077 45.0811 15.8361 49.567 14.1521 54.1113C19.1031 53.4738 25.0531 52.1365 30.5929 50.434C35.8419 48.8194 40.7086 46.8898 43.9732 44.9261L43.9732 44.9283ZM19.0909 39.27C22.712 39.099 26.4162 38.6606 30.1276 37.9144C33.1002 37.3197 36.0801 36.5246 39.0259 35.5158C38.8549 35.4804 38.6864 35.4462 38.5178 35.4108C37.9536 35.2948 37.1097 35.1311 36.2939 34.9736C33.083 34.3471 30.428 33.8317 26.917 32.5433C26.2343 32.2917 25.6114 32.0255 25.0509 31.7873C24.417 31.5174 23.8674 31.2792 23.4156 31.1498C22.1833 30.7895 21.42 31.3635 20.355 35.0225C19.9593 36.3842 19.5392 37.8058 19.0947 39.2739L19.0909 39.27ZM5.91442 72.5794C25.9432 75.5764 79.1956 76.9917 119.264 74.6592C132.928 73.8641 145.047 72.6355 153.762 70.8843C162.137 69.2038 167.264 67.1544 167.377 64.707C167.384 64.5458 167.366 64.3773 167.32 64.2026C164.166 51.7859 161.777 43.5814 159.099 34.3718C158.069 30.8276 156.995 27.1406 156.017 23.7124C152.015 9.68491 144.336 9.39415 129.489 8.82982C128.722 8.80173 127.938 8.76998 127.223 8.74189C118.505 8.39138 91.0189 7.64885 65.088 7.58657C51.0117 7.55115 37.3797 7.71603 27.4422 8.25216C28.7978 8.92507 29.9776 9.69083 31.0939 10.4272C41.3184 9.95096 55.4169 9.86057 69.6933 9.96193C93.2493 10.1268 117.253 10.8095 125.129 11.1038C125.86 11.1319 126.575 11.1563 127.272 11.1807C142.091 11.7059 149.759 11.9795 153.874 25.4915C154.862 28.7377 155.845 31.9033 156.79 34.9491C159.354 43.2061 161.636 50.5595 164.599 61.4887V61.4923C164.652 61.689 164.687 61.888 164.697 62.0871C164.851 64.5492 161.783 66.496 156.355 68.0017C151.285 69.4099 144.044 70.52 135.433 71.3774C113.772 73.5268 83.355 74.063 57.1177 73.5451C55.7487 73.5171 54.4419 73.4926 53.1193 73.4682C38.2758 73.191 21.7577 72.8869 7.01019 70.5017C6.64993 71.1991 6.28232 71.8915 5.90739 72.5742L5.91442 72.5794ZM90.2977 34.7929C90.6018 35.2301 90.8436 35.7248 91.0121 36.2462C91.2222 36.8911 91.3199 37.5872 91.2955 38.2699C91.2674 38.9636 91.1099 39.6536 90.8021 40.2765C90.4699 40.9555 89.9692 41.5551 89.2865 41.996C89.8287 42.1218 90.4101 42.2586 90.9987 42.388C91.6289 42.5285 92.2737 42.6714 92.9979 42.8008C93.6635 42.9193 94.3218 43.0109 94.9593 43.0463C95.9962 43.1025 96.9732 43.0048 97.7927 42.9242C98.6402 42.8399 99.3363 42.774 99.8969 42.879C100.671 43.0255 101.144 43.3797 101.234 44.1015C101.476 43.8035 101.798 43.3419 101.851 42.8131C101.903 42.305 101.868 41.7835 101.84 41.3243C101.812 40.8871 101.787 40.4939 101.827 40.1336C101.847 39.9589 101.896 39.755 101.949 39.5242C102.043 39.1211 102.166 38.6106 102.078 38.1405C102.008 37.7655 101.857 37.5139 101.711 37.2611C101.542 36.9778 101.378 36.6908 101.249 36.2805C101.183 36.0667 101.13 35.8323 101.099 35.5587C101.067 35.3096 101.057 35.0164 101.067 34.6659C101.091 33.8013 100.71 33.4996 100.335 33.2089C100.125 33.0441 99.9152 32.8828 99.7125 32.652C98.3923 31.178 96.8205 32.0952 95.1291 33.0795C94.3243 33.5485 93.4938 34.0321 92.5974 34.3606C91.8695 34.6269 91.0952 34.7527 90.3038 34.7881L90.2977 34.7929ZM55.3813 23.7343C55.0907 23.2861 54.8977 22.6803 54.894 21.8328L54.8867 20.5651L52.079 20.4808L52.0021 22.1723L51.4806 22.3543C51.4451 22.3653 51.4146 22.3787 51.3792 22.3897C52.3245 23.0589 53.5079 23.3179 54.5801 23.5524C54.8463 23.6122 55.1089 23.6684 55.3788 23.7343L55.3813 23.7343ZM56.8872 22.9637C57.1363 23.258 57.4722 23.4229 57.7555 23.5584C58.2635 23.8076 58.7044 24.0201 58.9108 24.3743C59.3028 24.4194 59.6985 24.4585 60.0942 24.4964C59.8353 24.3144 59.5581 24.1422 59.2711 23.9786C58.5493 23.5695 57.7482 23.2263 56.886 22.96L56.8872 22.9637Z" fill="black"/>
</svg>
