<svg width="51" height="52" viewBox="0 0 51 52" fill="none" xmlns="http://www.w3.org/2000/svg">
<path d="M51 25.7029C51 11.5156 39.5753 0 25.5 0C11.4247 0 0 11.5156 0 25.7029C0 39.8903 11.4247 51.4058 25.5 51.4058C39.5753 51.4058 51 39.8903 51 25.7029ZM49.658 25.7029C49.658 39.1595 38.8504 50.0531 25.5001 50.0531C12.1498 50.0531 1.34223 39.1589 1.34223 25.7029C1.34223 12.2469 12.1499 1.35279 25.5001 1.35279C38.8505 1.35279 49.658 12.2469 49.658 25.7029ZM42.2762 25.6822C42.2673 25.5175 42.2022 25.3509 42.1086 25.2382L31.3715 13.7396C31.1117 13.4665 30.6783 13.4749 30.4279 13.7189C30.1737 13.9666 30.1447 14.4101 30.3862 14.67L40.0537 25.0268H9.39497C9.02424 25.0268 8.72373 25.3297 8.72373 25.7034C8.72373 26.0771 9.02424 26.38 9.39497 26.38H40.0537L30.3862 36.7373C30.1447 36.9972 30.17 37.4662 30.4279 37.7097C30.6858 37.9531 31.0907 37.9489 31.3715 37.6677L42.1086 26.1691C42.2364 26.0111 42.2846 25.8468 42.2762 25.6822Z" fill="black"/>
</svg>
