<svg width="97" height="97" viewBox="0 0 97 97" fill="none" xmlns="http://www.w3.org/2000/svg">
<path d="M63.4044 30.1501C59.9574 27.1236 55.8433 25.1065 51.6175 24.098C52.3963 31.4957 48.8375 37.9966 43.2776 38.8934C37.7176 39.7903 32.3803 34.634 30.8235 27.3488C28.9332 28.47 27.1539 29.8146 25.5971 31.4957C24.0404 33.0648 22.5946 34.8584 21.483 36.7636C28.7105 38.3328 33.7153 43.7126 32.9365 49.3168C32.0468 54.921 25.5971 58.5081 18.2578 57.7231C19.2584 61.9825 21.2604 66.0175 24.2622 69.6038C27.9317 63.1029 34.6033 59.9646 39.6078 62.5423C44.6116 65.12 46.0574 72.4059 42.944 79.243C47.3916 79.5792 51.8401 78.9068 55.9543 77.1132C50.9505 71.6209 50.0607 64.224 54.064 60.1888C58.0672 56.1537 65.4065 57.1623 70.8548 62.0941C72.6342 57.9472 73.3012 53.3515 72.9678 48.9803C66.1847 52.0067 58.9569 50.5494 56.399 45.6176C53.8416 40.574 56.9551 33.8486 63.4047 30.1498L63.4044 30.1501ZM51.5057 57.7227C48.0588 61.1971 42.387 61.1971 38.94 57.7227C35.4931 54.2483 35.4931 48.5314 38.94 45.057C42.387 41.5826 48.0588 41.5826 51.5057 45.057C54.9527 48.5314 54.9527 54.1356 51.5057 57.7227Z" fill="black"/>
<path d="M50.6165 51.3345C50.6165 54.3679 48.1771 56.8268 45.1682 56.8268C42.1587 56.8268 39.7192 54.3679 39.7192 51.3345C39.7192 48.3018 42.1587 45.8428 45.1682 45.8428C48.1769 45.8428 50.6165 48.3016 50.6165 51.3345Z" fill="black"/>
<path d="M75.6365 56.0417C74.7468 61.6459 71.856 68.483 66.963 73.4149C54.9535 85.5199 35.4937 85.4082 23.4842 73.4149C11.4747 61.3098 11.5855 41.6952 23.5951 29.5901C28.4881 24.6582 34.3814 21.7444 41.0538 20.8476V6.72461C31.0463 7.73318 21.483 11.9925 13.9212 19.6138C-3.42562 37.0995 -3.53662 65.5682 13.8103 83.0533C31.1572 100.538 59.2907 100.651 76.6377 83.1651C84.3106 75.5438 88.5364 66.1289 89.426 56.0408L75.6365 56.0417Z" fill="black"/>
<path d="M80.6407 15.3553C70.2996 4.93109 56.6217 0 43.2778 0V16.3647C53.2853 16.3647 61.9589 19.7274 69.076 26.9008C76.1927 34.0741 79.8623 43.7133 79.8623 52.6801H96.0977C96.097 39.2294 90.8706 25.7779 80.6403 15.3561L80.6407 15.3553ZM48.6154 9.97547C47.3922 9.97547 46.5024 8.9669 46.5024 7.84568C46.5024 6.72452 47.503 5.71588 48.6154 5.71588C49.7278 5.71588 50.7284 6.72446 50.7284 7.84568C50.7284 8.96606 49.727 9.97547 48.6154 9.97547ZM87.535 48.084C86.3118 48.084 85.422 47.0754 85.422 45.9542C85.422 44.8331 86.4227 43.8244 87.535 43.8244C88.6474 43.8244 89.648 44.833 89.648 45.9542C89.648 47.0754 88.6466 48.084 87.535 48.084Z" fill="black"/>
</svg>
