<svg width="94" height="86" viewBox="0 0 94 86" fill="none" xmlns="http://www.w3.org/2000/svg">
<path d="M20.621 0C18.586 0 16.8182 1.31124 15.8174 3.06006C14.1829 6.35498 13.3825 8.7425 12.6818 12.0037L8.37853 14.4912C8.07842 14.3231 7.74483 14.2225 7.44472 14.2225H2.54129C1.60683 14.3231 0.839844 15.1975 0.839844 16.1388V29.4199C0.839844 30.3949 1.74081 31.303 2.70805 31.303H7.44472C7.77832 31.303 8.11192 31.2355 8.41201 31.0343L10.8469 32.4461C10.5133 39.5741 10.3465 46.6009 10.313 52.1834H10.2461C9.27876 52.1834 8.37785 53.0915 8.37785 54.0997V75.9212C8.37785 76.8962 9.27882 77.8043 10.2461 77.8043H13.0816V83.5198C13.0816 84.4947 13.9825 85.4028 14.9498 85.4028H29.0934C30.0607 85.4028 30.9616 84.4947 30.9616 83.5198V77.8043H62.9849V83.5198C62.9849 84.4947 63.8859 85.4028 64.8531 85.4028H78.9633C79.964 85.4028 80.8644 84.4947 80.8644 83.5198V77.8043H83.6999C84.6666 77.8043 85.5675 76.8961 85.5675 75.9212V54.0997C85.5675 53.0909 84.6665 52.1834 83.6993 52.1834C83.4327 45.7947 83.3657 38.8016 83.0991 32.8511L85.6673 31.1031C85.9339 31.2374 86.2012 31.3049 86.5013 31.3049H91.2045C92.2053 31.3049 93.1056 30.3968 93.1056 29.4219V16.1407C93.1056 15.132 92.2047 14.2244 91.2045 14.2244H86.3345C86.0679 14.2575 85.8013 14.3244 85.5675 14.4594L81.2307 12.0044C81.0974 11.3326 80.9641 10.6601 80.7973 9.95376C79.9299 7.63385 79.2627 5.01131 78.1621 3.0613C77.1613 1.31259 75.3934 0.00123687 73.3585 0.00123687H20.6206L20.621 0ZM20.621 3.79936H73.3588C74.1593 3.79936 74.2598 3.86688 74.9263 4.97623C75.56 6.08559 76.2607 8.17066 77.1944 11.0281C79.663 25.6541 79.8632 41.6914 79.8967 54.0983C79.8967 55.0733 80.7976 55.9814 81.7649 55.9814C81.8318 61.9326 81.7983 68.0182 81.7983 74.0039H12.1486V55.9814C13.1159 55.9814 14.0168 55.0733 14.0168 54.0983C14.8167 39.3379 13.5821 24.511 16.7513 11.0281C17.6851 8.17066 18.4193 6.08561 19.0529 4.97623C19.5198 4.035 20.0872 4.00124 20.6204 3.79936H20.621ZM23.9897 11.3981C20.9875 11.23 19.4198 13.3144 18.7191 15.9374L15.9171 33.0178C16.451 34.9341 17.4517 37.0527 18.4525 38.5652C18.9529 39.2039 19.5531 39.8089 20.4875 39.8089C38.1004 39.8426 55.7133 39.8426 73.3245 39.8426C74.2583 39.8426 74.9255 39.2377 75.4594 38.5989C76.6932 36.8509 77.4609 35.0015 78.0612 33.2864C77.1267 27.5033 76.1595 21.7202 75.2257 15.9366C74.2584 12.3386 72.0901 11.3973 68.6208 11.3973C53.7765 11.3635 38.7661 11.3973 23.9892 11.3973L23.9897 11.3981ZM24.0567 13.2812H68.6227C71.6586 13.0455 72.7591 14.0212 73.3259 16.2736L76.128 33.1184C75.3938 34.9004 74.7273 36.7834 73.3259 37.9602L20.4872 37.9265C19.12 36.5815 18.4857 34.934 17.8192 33.1184L20.6212 16.2736C21.0881 13.8861 22.1559 13.3486 24.0571 13.2811L24.0567 13.2812ZM12.2149 14.458C11.3474 19.9049 11.1478 25.318 10.9475 30.3278L9.31233 29.4197V16.1385L12.2149 14.458ZM81.6982 14.458L84.6335 16.1393V29.4204C84.3334 29.891 83.4994 30.2948 82.9656 30.6311C82.7653 25.5205 82.632 20.0062 81.6982 14.4588V14.458ZM33.2976 43.6099V45.5261H60.5835V43.6099H33.2976ZM33.2976 47.4092V49.3255H60.5835V47.4092H33.2976ZM33.2976 51.2086V53.1249H60.5835V51.2086H33.2976ZM15.7183 56.9241C14.8173 57.0247 14.0168 57.8991 14.0168 58.8404V70.2045C14.0168 71.2133 14.9178 72.1208 15.918 72.1208H26.2588C27.3594 72.1208 28.2938 70.9777 28.127 69.9014L26.2258 58.5047C26.0925 57.6303 25.2586 56.9247 24.3911 56.9247H15.7183V56.9241ZM29.8619 56.9241C28.8276 57.0247 27.9937 58.1009 28.1605 59.1435L30.0616 70.5077C30.1949 71.3821 31.0289 72.1214 31.8964 72.1214H62.0183C62.9193 72.1214 63.7526 71.3814 63.8866 70.5077L65.7548 59.1435C65.955 58.0679 64.9878 56.9241 63.92 56.9241H29.8619ZM69.3896 56.9241C68.5557 57.0247 67.855 57.6972 67.7217 58.504L65.8205 69.9021C65.6537 70.9777 66.5875 72.1215 67.6887 72.1215H78.0295C79.0303 72.1215 79.9307 71.2134 79.9307 70.2053V58.8411C79.9307 57.8323 79.0297 56.9248 78.0295 56.9248H69.3902L69.3896 56.9241ZM17.7865 60.7234H22.7905L24.0579 68.3222H17.7866L17.7865 60.7234ZM32.2637 60.7234H61.6846L61.3845 62.6397H32.5637L32.2637 60.7234ZM71.1577 60.7234H76.1616V68.3222H69.8903L71.1577 60.7234ZM33.1967 66.4389H60.75L60.4498 68.322H33.4967L33.1967 66.4389Z" fill="black"/>
</svg>
