<svg width="90" height="89" viewBox="0 0 90 89" fill="none" xmlns="http://www.w3.org/2000/svg">
<path d="M84.3427 60.2496C80.111 55.9842 74.0391 54.3151 68.335 55.7986L66.127 53.7581C66.127 52.6453 65.7592 51.5325 65.2073 50.4198C63.9191 48.3799 61.7111 47.0815 59.5031 47.2672V47.0815C59.5031 45.2267 58.7669 43.7432 57.663 42.4448C56.3748 41.1463 54.7188 40.5899 53.0628 40.5899H52.8786C52.8786 38.9208 52.3266 37.066 51.0384 35.7682C49.9345 34.6554 48.6463 34.099 46.9903 33.9133C47.1745 32.4299 46.9903 30.7607 46.2541 29.4623C44.9659 27.4224 42.9422 26.3097 40.55 26.3097C39.998 26.3097 39.446 26.3097 39.0782 26.4953L33.7425 21.1172C35.2143 15.3677 33.5583 9.24747 29.3266 4.98208C25.0955 0.716694 19.2078 -0.952453 13.5034 0.531021C12.7672 0.531021 12.3994 1.0874 12.2152 1.82946C12.031 2.38584 12.2152 3.1279 12.7672 3.68428L21.0471 12.03L12.7672 20.3758L4.30378 11.8443C3.93538 11.288 3.1998 11.1023 2.64781 11.288C1.91161 11.473 1.54383 12.0294 1.35962 12.7714C-0.112141 18.5209 1.54383 24.4555 5.77555 28.7205C10.0073 32.9856 16.0792 34.6551 21.7833 33.1716L23.255 34.6551C21.9675 35.5828 21.0471 37.0663 20.6793 38.9211C20.1273 41.5173 19.3911 43.5578 18.8391 44.6706C16.8154 48.0089 15.7114 51.3472 15.343 54.6855L1.35899 66.1838C0.991825 66.3695 0.807617 66.9259 0.807617 67.2966C0.807617 67.853 0.991824 68.4094 1.35961 68.7801L20.8638 88.4395C21.2316 88.8102 21.7836 88.9959 22.152 88.9959C22.5198 88.9959 22.8882 88.8102 23.256 88.6251C29.8799 83.6177 41.2871 75.272 43.8641 74.5299C48.2801 72.8608 52.144 70.4496 55.4559 67.1113L56.1921 67.8533C54.7204 73.6028 56.3763 79.723 60.6081 83.9884C63.7358 87.141 67.9681 88.9959 72.3841 88.9959C73.6722 88.9959 75.144 88.8102 76.4322 88.4395C76.9842 88.2538 77.5362 87.6974 77.7204 87.141C77.9046 86.5846 77.7204 85.8426 77.1684 85.2862L68.8885 76.9405L77.1684 68.5947L85.4483 76.9405C86.0002 77.4969 86.5522 77.6825 87.2884 77.4969C87.8404 77.3112 88.3924 76.7548 88.5766 76.1984C90.0465 70.4496 88.3906 64.515 84.343 60.2493L84.3427 60.2496ZM23.4392 29.6486C22.8872 29.0922 22.1511 28.9065 21.5991 29.2779C16.8154 30.7614 11.8474 29.4629 8.35129 25.9389C5.95912 23.5277 4.67157 20.3751 4.48736 17.0368L11.2955 24.0848C12.0316 24.8268 13.1356 24.8268 13.8712 24.0848L24.7274 13.1421C25.4636 12.4001 25.4636 11.2873 24.7274 10.5459L17.9193 3.68364C21.2313 3.68364 24.359 5.16774 26.7512 7.39329C30.2473 10.9173 31.5349 16.1097 29.8789 20.9321C29.6947 21.6742 29.8789 22.4156 30.2467 22.787L35.5824 28.1651L33.5586 30.205C33.1909 30.3906 31.9027 30.947 26.9348 32.2448C26.7506 32.2448 26.7506 32.4305 26.567 32.4305L23.4392 29.6486ZM22.3353 84.7305L5.40808 67.6686L17.1841 58.0244L34.8478 75.8287C30.0634 78.9813 24.9113 82.876 22.3356 84.7308L22.3353 84.7305ZM42.5744 71.0059C41.6546 71.3766 39.9986 72.3044 37.7907 73.6022L19.023 54.6852C19.2072 51.9033 20.127 49.1213 21.9672 46.3394C22.8869 44.856 23.6231 42.6304 24.3593 39.4772C24.7271 37.6223 26.0153 36.3245 27.8555 35.7682C35.2156 33.7283 35.5833 33.357 36.1353 32.8006L38.5275 30.3894C39.8157 29.0909 42.0237 29.4623 43.1276 30.9458C43.8638 32.0585 43.4954 33.542 42.5756 34.6548L41.8394 35.3968C41.1033 36.1389 41.1033 37.2516 41.8394 37.9931C42.5756 38.7351 43.6796 38.7351 44.4152 37.9931C45.5192 36.8803 47.3594 36.8803 48.4633 37.9931C49.5673 39.1058 49.5673 40.9606 48.4633 42.0734C48.0955 42.4441 47.9113 43.0005 47.9113 43.3718C47.9113 43.9282 48.0955 44.2989 48.4633 44.6703C49.1995 45.4123 50.3035 45.4123 51.0391 44.6703C52.1431 43.5575 53.9832 43.5575 55.0872 44.6703C55.6392 45.2267 56.007 45.9687 56.007 46.7101C56.007 47.4522 55.6392 48.1936 55.0872 48.75C54.351 49.4921 54.351 50.6048 55.0872 51.3462C55.8234 52.0883 56.9274 52.0883 57.663 51.3462C58.9512 50.0478 61.1591 50.4191 62.2631 51.9026C62.9993 53.0154 62.6309 54.4989 61.7111 55.6116L53.6155 63.7717C50.3022 67.1106 46.6225 69.5218 42.5744 71.0053V71.0059ZM78.6383 64.8857C77.9021 64.1437 76.7981 64.1437 76.0625 64.8857L65.2063 75.8283C64.4701 76.5704 64.4701 77.6832 65.2063 78.4246L72.0144 85.2868C68.7025 85.1012 65.5747 83.8034 63.1825 81.3922C59.6864 77.8682 58.3988 72.6757 60.0548 67.8533C60.239 67.1113 60.0548 66.3698 59.687 65.9985L58.2153 64.515L64.103 58.5805C64.4707 58.2098 64.6549 58.0241 64.8392 57.6534L66.4951 59.3225C67.0471 59.8789 67.7833 60.0646 68.3353 59.6933C73.119 58.0241 78.0869 59.3225 81.7673 62.8459C84.1595 65.2571 85.447 68.4097 85.6312 71.748L78.6383 64.8857Z" fill="black"/>
</svg>
