<svg width="116" height="78" viewBox="0 0 116 78" fill="none" xmlns="http://www.w3.org/2000/svg">
<path d="M18.0379 26.9001H25.0534C26.5639 26.9001 27.8129 28.0343 28.0146 29.501C28.4064 29.358 28.8001 29.2052 29.1989 29.0298C30.5244 28.4478 31.1313 26.8929 30.5539 25.5562C29.976 24.2202 28.4339 23.6091 27.1085 24.1904C25.3745 24.949 23.936 25.2235 22.7197 25.2242C21.0936 25.2183 19.8066 24.749 18.6321 23.9865C17.7234 23.3974 16.9103 22.5999 16.2109 21.7396C13.3928 22.6601 11.2063 23.0167 10.4689 23.1197L10.4625 23.1209L10.4259 23.1261C10.282 23.1443 10.1478 23.152 10.0181 23.152H10.0174C8.37271 23.1501 6.9779 21.9085 6.7742 20.2623C6.66502 19.3884 6.89943 18.523 7.43631 17.8272C7.97255 17.1313 8.74576 16.6872 9.61336 16.5772L9.69364 16.5662L9.85996 16.5403C10.059 16.5079 10.3557 16.4568 10.7334 16.3797C11.3775 16.249 12.3723 16.0205 13.5559 15.6619C12.9882 14.9226 12.2483 14.388 11.3556 14.1834C8.54661 13.538 4.52773 15.1511 2.97871 20.0157C0.88764 26.7173 0.497178 31.059 1.49328 38.3701C2.13034 41.3478 3.55672 42.7985 5.21623 43.4794C5.21109 49.3059 4.49696 60.513 0.255798 72.0318C-0.528973 74.1673 0.5525 76.541 2.67173 77.332C3.14055 77.5067 3.62027 77.5896 4.09229 77.5896C5.75492 77.5896 7.31874 76.5604 7.93082 74.8961C12.6844 61.9317 13.394 49.7541 13.4011 43.3343C13.4004 40.4446 13.2521 38.7215 13.2431 38.6173C13.2155 38.3066 13.1519 38.0082 13.0613 37.7233C12.7235 34.1463 13.1885 30.272 13.7588 26.8128C14.3008 27.3222 14.8961 27.8058 15.546 28.2511C16.0816 27.4381 16.9987 26.9008 18.0377 26.9008L18.0379 26.9001Z" fill="black"/>
<path d="M112.745 27.5599H105.729C104.438 27.5599 103.39 28.6156 103.39 29.9175V31.0962H100.897C99.0728 26.2161 95.8392 17.5349 95.2351 15.7147C94.7194 14.0776 93.3623 13.1695 91.7799 12.7791C90.1821 12.3616 88.2169 12.2612 85.8145 12.0573C80.5831 11.6178 71.0605 11.1815 65.3905 11.1815C59.7172 11.1815 50.1965 11.6171 44.9648 12.0573C42.563 12.2606 40.5972 12.3609 38.9987 12.7791C37.4189 13.1694 36.0593 14.0776 35.5429 15.7147C35.3181 16.395 34.726 18.032 33.9766 20.0711L31.3499 10.8281C31.0159 11.3667 30.6511 11.8904 30.2652 12.4018L33.1113 22.4183C32.1108 25.1228 30.9959 28.1141 30.1277 30.4374C30.043 30.6639 29.9608 30.884 29.8811 31.097H27.3912V29.9182C27.3912 28.6165 26.3438 27.5606 25.0529 27.5606L18.038 27.56C16.7472 27.56 15.6997 28.6157 15.6997 29.9176V32.2745C15.6997 33.5763 16.7465 34.6315 18.038 34.6315H28.558L28.3101 35.2917L28.3075 35.2989C25.7778 36.5812 19.9216 40.1046 19.9216 45.2384V59.3804H51.9444V47.5953H55.4521V59.3804H57.7904V47.5953H61.2982V59.3804H63.6365V47.5953H67.1443V59.3804H69.4826V47.5953H72.991V59.3804H75.3293V47.5953H78.8371V59.3804H110.862V45.2384C110.862 40.1026 105.001 36.5785 102.474 35.2975L102.223 34.6314H112.746C114.037 34.6314 115.084 33.5763 115.084 32.2745V29.9176C115.084 28.6158 114.037 27.5599 112.746 27.5599L112.745 27.5599ZM35.1687 24.2612C36.1295 22.2739 36.9283 20.5754 37.2083 19.7286C37.5577 18.7479 38.117 18.3303 39.4439 17.9465C40.7546 17.5956 42.6851 17.4772 45.1108 17.2746C50.2696 16.8408 59.8 16.4058 65.3901 16.4058C70.9779 16.4058 80.5103 16.8408 85.6695 17.2746C88.0945 17.4772 90.0262 17.5956 91.335 17.9465C92.6618 18.3303 93.2237 18.7478 93.5718 19.7286C94.3109 21.9592 98.6451 30.0908 100.062 33.8777H30.7658V33.7508C30.9462 33.2783 31.1678 32.7442 31.4208 32.1649C32.1799 30.4256 33.2125 28.2893 34.2022 26.2522L36.0524 32.7623L37.4685 32.3532L35.1687 24.2612ZM33.8239 53.619C30.5937 53.619 27.9774 50.9812 27.9774 47.7264C27.9774 44.4716 30.5937 41.8338 33.8239 41.8338C37.0504 41.8338 39.6687 44.4716 39.6687 47.7264C39.6687 50.9812 37.0504 53.619 33.8239 53.619V53.619ZM96.962 53.619C93.7323 53.619 91.1148 50.9812 91.1148 47.7264C91.1148 44.4716 93.7318 41.8338 96.962 41.8338C100.189 41.8338 102.807 44.4716 102.807 47.7264C102.807 50.9812 100.188 53.619 96.962 53.619Z" fill="black"/>
<path d="M62.6639 21.238H68.1188C68.8721 21.238 69.4828 20.6218 69.4828 19.8632C69.4828 19.1032 68.8721 18.4883 68.1188 18.4883H62.6639C61.9106 18.4883 61.2998 19.1032 61.2998 19.8632C61.3004 20.6224 61.9105 21.238 62.6639 21.238Z" fill="black"/>
<path d="M18.623 60.8516C18.623 60.8516 18.623 66.9629 22.5193 66.9629H23.2996V75.6046C23.2996 76.9057 24.3457 77.9616 25.6379 77.9616H34.9917C36.2813 77.9616 37.33 76.9058 37.33 75.6046L37.3307 70.8909H94.8774V75.7607C94.8774 76.977 95.8542 77.9629 97.0615 77.9629H105.799C107.005 77.9629 107.983 76.977 107.983 75.7607V66.9636H108.263C112.16 66.9636 112.16 60.8522 112.16 60.8522H65.3914L18.623 60.8516Z" fill="black"/>
<path d="M33.824 43.1433C31.3142 43.1433 29.2759 45.1967 29.2759 47.7276C29.2759 50.2548 31.3142 52.3093 33.824 52.3093C36.3298 52.3093 38.3708 50.2548 38.3708 47.7276C38.3701 45.1967 36.3298 43.1433 33.824 43.1433Z" fill="black"/>
<path d="M96.9605 43.145C94.4527 43.145 92.4155 45.1995 92.4155 47.7255C92.4155 50.2553 94.4527 52.3098 96.9605 52.3098C99.4683 52.3098 101.507 50.2553 101.507 47.7255C101.506 45.1997 99.4683 43.145 96.9605 43.145Z" fill="black"/>
<path d="M25.8127 7.30789C25.4113 4.28098 23.1687 1.69702 20.0353 1.03019C16.0569 0.182206 12.1496 2.74681 11.3084 6.7564C10.584 10.2123 12.3751 13.6134 15.4293 15.0298C17.5171 14.2537 20.0378 13.0575 22.2424 11.2799C23.7163 10.0959 24.9096 8.76302 25.8125 7.30789H25.8127Z" fill="black"/>
<path d="M28.2735 0L26.8574 0.409113L28.025 4.51831C28.4662 4.29952 28.9536 4.17394 29.4597 4.17329L28.2735 0Z" fill="black"/>
<path d="M10.862 17.0249C10.4716 17.1038 10.1665 17.1569 9.96488 17.1893C9.86341 17.2068 9.78956 17.2165 9.74331 17.2236C9.69707 17.2301 9.69322 17.2301 9.69322 17.2301C8.25788 17.412 7.24062 18.7318 7.42114 20.1786C7.58683 21.5134 8.71519 22.4895 10.0163 22.4895C10.1254 22.4895 10.2359 22.4824 10.347 22.4688H10.3464C10.4934 22.4461 14.2806 21.9678 18.8453 20.0557C21.1271 19.097 23.6097 17.7744 25.916 15.9231C28.2183 14.075 30.3505 11.678 31.8178 8.62137C32.4485 7.30924 31.9052 5.73048 30.6028 5.0948C29.301 4.45914 27.7347 5.00741 27.1047 6.32018C26.0361 8.54174 24.4692 10.3323 22.6503 11.7952C19.9312 13.9876 16.6469 15.3879 14.0557 16.1969C12.761 16.6028 11.6423 16.8669 10.862 17.0248L10.862 17.0249Z" fill="black"/>
</svg>
