<svg width="89" height="86" viewBox="0 0 89 86" fill="none" xmlns="http://www.w3.org/2000/svg">
<path d="M12.4397 18.1345C11.9515 18.1345 11.4991 18.3917 11.2459 18.8118C10.9927 19.2325 10.9765 19.7559 11.2018 20.1924C13.5958 24.8177 18.2639 27.6306 23.3611 27.6306C23.8389 27.6306 24.3212 27.6058 24.8054 27.5554C29.4735 27.0699 33.4684 24.1706 35.5399 20.1322H59.3822C61.2136 22.4118 64.0081 23.8743 67.1377 23.8743C72.6405 23.8743 77.1185 19.3615 77.1185 13.8147C77.1185 8.26876 72.6407 3.75582 67.1377 3.75582C64.0081 3.75582 61.2129 5.21823 59.3822 7.4979H35.5216C34.9938 6.46211 34.3512 5.48264 33.5696 4.60256C30.971 1.67774 27.2482 0 23.3552 0C18.2334 0 13.5769 2.85028 11.2023 7.43827C10.9771 7.87471 10.9933 8.39751 11.2465 8.81889C11.4996 9.23961 11.9521 9.49611 12.4403 9.49611H21.9594V18.1351L12.4397 18.1345ZM67.1373 6.56942C71.1016 6.56942 74.3261 9.81937 74.3261 13.8147C74.3261 17.8101 71.1018 21.06 67.1373 21.06C63.1742 21.06 59.9492 17.8101 59.9492 13.8147C59.9499 9.82004 63.1742 6.56942 67.1373 6.56942V6.56942ZM57.7947 10.3115C57.3896 11.4042 57.1578 12.5814 57.1578 13.8147C57.1578 15.0481 57.3902 16.2253 57.7947 17.3179L36.6096 17.3186C36.7725 16.6891 36.9037 16.0466 36.9757 15.3864C37.1653 13.665 37.0153 11.9487 36.5895 10.3122L57.7947 10.3115ZM22.4242 6.68131H15.0511C17.0985 4.25181 20.1099 2.81293 23.3551 2.81293C26.4554 2.81293 29.4208 4.14906 31.4896 6.47913C33.587 8.84063 34.5497 11.8936 34.2004 15.0762C33.6422 20.1597 29.5701 24.2307 24.5189 24.7562C20.8512 25.1396 17.3503 23.6805 15.0498 20.9488H22.4242C23.7069 20.9488 24.7507 19.8967 24.7507 18.6037V9.0264C24.7507 7.73345 23.7069 6.68131 22.4242 6.68131V6.68131ZM64.0083 16.9901L65.9739 18.1345C66.3329 18.3433 66.7353 18.448 67.1378 18.448C67.5403 18.448 67.9421 18.3433 68.3004 18.1345L70.2674 16.9901C70.9854 16.5727 71.4307 15.794 71.4307 14.9591V12.671C71.4307 11.8348 70.9847 11.0568 70.2674 10.64L68.3024 9.49754C67.5851 9.07877 66.6932 9.07681 65.9739 9.49689L64.0103 10.64C63.2916 11.0568 62.845 11.8348 62.845 12.671V14.9591C62.845 15.7947 63.2903 16.5727 64.0083 16.9901L64.0083 16.9901ZM65.637 12.9425L67.1372 12.069L68.6387 12.9425V14.6889L67.1372 15.5624L65.637 14.6889V12.9425ZM12.43 37.4587H7.91067C3.54902 37.4587 0 41.0353 0 45.4323V77.0658C0 81.4622 3.54835 85.0394 7.91067 85.0394H12.43C16.7917 85.0394 20.3407 81.4623 20.3407 77.0658V45.4323C20.3407 41.0359 16.7923 37.4587 12.43 37.4587V37.4587ZM7.91067 40.273H12.43C13.4154 40.273 14.3333 40.5595 15.1149 41.0477C13.4537 41.3873 11.6056 42.0586 10.1696 43.3718C8.73432 42.0586 6.88614 41.3872 5.22564 41.0477C6.00722 40.5602 6.9252 40.273 7.9105 40.273H7.91067ZM12.43 82.2248H7.91067C5.56067 82.2248 3.58076 80.6178 2.98233 78.4388C4.61171 78.5645 7.64394 79.0775 9.00581 81.1529C9.26418 81.5469 9.70171 81.7844 10.1697 81.7844C10.6384 81.7844 11.0753 81.5468 11.3337 81.1529C12.6963 79.0774 15.7291 78.5645 17.3585 78.4388C16.76 80.6178 14.78 82.2248 12.4302 82.2248H12.43ZM17.5486 75.607C15.5779 75.7104 12.3847 76.2116 10.1698 78.2373C7.9562 76.2115 4.76298 75.7103 2.79205 75.607V71.4533C4.36105 71.5528 7.58727 72.0193 9.00581 74.1805C9.26418 74.5744 9.70171 74.8119 10.1697 74.8119C10.6384 74.8119 11.0753 74.5744 11.3337 74.1805C12.7527 72.0193 15.979 71.5527 17.5481 71.4533L17.5486 75.607ZM17.5486 68.6339C15.5779 68.7373 12.3847 69.2385 10.1698 71.2642C7.9562 69.2384 4.76298 68.7372 2.79205 68.6339V64.4802C4.36105 64.5797 7.58727 65.0462 9.00581 67.2074C9.26418 67.6013 9.70171 67.8388 10.1697 67.8388C10.6384 67.8388 11.0753 67.6013 11.3337 67.2074C12.7527 65.0462 15.979 64.5796 17.5481 64.4802L17.5486 68.6339ZM17.5486 61.6608C15.5779 61.7642 12.3847 62.2654 10.1698 64.2911C7.9562 62.2653 4.76298 61.7641 2.79205 61.6608V57.5071C4.36105 57.6066 7.58727 58.0731 9.00581 60.2343C9.26418 60.6282 9.70171 60.8657 10.1697 60.8657C10.6384 60.8657 11.0753 60.6282 11.3337 60.2343C12.7527 58.0731 15.979 57.6065 17.5481 57.5071L17.5486 61.6608ZM17.5486 54.6877C15.5779 54.7911 12.3847 55.2923 10.1698 57.318C7.9562 55.2922 4.76298 54.791 2.79205 54.6877V50.534C4.36105 50.6335 7.58727 51.1 9.00581 53.2612C9.26418 53.6551 9.70171 53.8926 10.1697 53.8926C10.6384 53.8926 11.0753 53.6551 11.3337 53.2612C12.7527 51.1 15.979 50.6334 17.5481 50.534L17.5486 54.6877ZM17.5486 47.7146C15.5779 47.818 12.3847 48.3192 10.1698 50.3449C7.9562 48.3191 4.76298 47.8179 2.79205 47.7146V45.4316C2.79205 44.7799 2.91734 44.159 3.13675 43.5845C4.79991 43.7324 7.68868 44.2821 9.00502 46.2889C9.26338 46.6828 9.70091 46.919 10.1689 46.9203C10.6376 46.9203 11.0745 46.6828 11.3329 46.2889C12.65 44.2822 15.5388 43.7325 17.2025 43.5845C17.4219 44.159 17.5478 44.7806 17.5478 45.4316L17.5486 47.7146ZM61.1735 30.634C52.9572 30.634 45.5911 34.359 40.6365 40.2165C39.185 38.5316 37.0506 37.4599 34.6675 37.4599H30.1482C25.7865 37.4599 22.2375 41.0364 22.2375 45.4335V77.067C22.2375 81.4633 25.7859 85.0406 30.1482 85.0406H34.6675C38.8831 85.0406 42.3289 81.6963 42.5561 77.5035C47.4027 82.1675 53.9591 85.0406 61.172 85.0406C76.0532 85.0406 88.1602 72.8369 88.1602 57.8376C88.1615 42.8373 76.054 30.6347 61.1736 30.6347L61.1735 30.634ZM30.1487 40.2735H34.668C35.6534 40.2735 36.5713 40.56 37.3529 41.0482C35.6917 41.3878 33.8436 42.0591 32.4083 43.3723C30.973 42.0591 29.1242 41.3877 27.4636 41.0482C28.2452 40.5607 29.1632 40.2735 30.1485 40.2735H30.1487ZM25.0301 45.4328C25.0301 44.7811 25.1553 44.1601 25.3748 43.5857C27.0379 43.7336 29.9267 44.2832 31.2437 46.2901C31.5021 46.684 31.9396 46.9215 32.4076 46.9215C32.8763 46.9215 33.3132 46.684 33.5716 46.2901C34.5745 44.7616 36.4824 44.0871 38.0741 43.7827C37.1939 45.2464 36.448 46.8005 35.8508 48.4271C34.6381 48.8243 33.4197 49.4204 32.4069 50.3463C30.1927 48.3204 26.9995 47.8193 25.0287 47.7159L25.0301 45.4328ZM25.0301 50.5345C26.5991 50.634 29.8253 51.1005 31.2445 53.2617C31.5029 53.6556 31.9404 53.8931 32.4084 53.8931C32.8771 53.8931 33.314 53.6556 33.5724 53.2617C33.8982 52.7651 34.3319 52.3718 34.809 52.0375C34.5266 53.3435 34.3384 54.6842 34.2501 56.0524C33.597 56.3887 32.9706 56.8042 32.4084 57.3192C30.1942 55.2934 27.001 54.7922 25.0302 54.6888L25.0301 50.5345ZM25.0301 57.5076C26.5991 57.6071 29.8253 58.0736 31.2445 60.2348C31.5029 60.6287 31.9404 60.8662 32.4084 60.8662C32.8771 60.8662 33.314 60.6287 33.5724 60.2348C33.7632 59.9443 33.9885 59.6852 34.2371 59.4522C34.3046 60.6038 34.4461 61.7345 34.6512 62.8436C33.8547 63.21 33.0835 63.6732 32.4078 64.2916C30.1935 62.2657 27.0003 61.7646 25.0296 61.6612L25.0301 57.5076ZM25.0301 64.4807C26.5991 64.5802 29.8253 65.0467 31.2445 67.2079C31.5029 67.6018 31.9404 67.8393 32.4084 67.8393C32.8771 67.8393 33.314 67.6018 33.5724 67.2079C34.0131 66.5366 34.6389 66.0432 35.3276 65.6585C35.6827 66.848 36.1182 68.0016 36.6246 69.1166C35.1666 69.4955 33.6371 70.1413 32.4084 71.2654C30.1941 69.2396 27.0009 68.7384 25.0301 68.6351L25.0301 64.4807ZM34.668 82.2246H30.1487C27.7987 82.2246 25.8188 80.6176 25.2203 78.4387C26.8497 78.5643 29.8819 79.0773 31.2445 81.1528C31.5029 81.5467 31.9404 81.7842 32.4084 81.7842C32.8771 81.7842 33.314 81.5467 33.5724 81.1528C34.9349 79.0772 37.9677 78.5643 39.5965 78.4387C38.998 80.6176 37.018 82.2246 34.6682 82.2246H34.668ZM39.7867 75.6068C37.8159 75.7102 34.6227 76.2114 32.4084 78.2372C30.1942 76.2114 27.001 75.7102 25.0302 75.6068V71.4532C26.5992 71.5526 29.8254 72.0192 31.2447 74.1803C31.503 74.5742 31.9405 74.8118 32.4086 74.8118C32.8773 74.8118 33.3142 74.5742 33.5725 74.1803C34.5514 72.6892 36.395 72.0093 37.9628 71.6939C38.5171 72.6341 39.1273 73.5365 39.7863 74.3994L39.7867 75.6068ZM82.7833 68.7868L81.7687 68.1966C81.1013 67.808 80.2471 68.037 79.862 68.7116C79.4764 69.3849 79.7049 70.2453 80.3729 70.6334L81.3849 71.2223C79.5692 73.9978 77.2076 76.3783 74.4539 78.2084L73.8697 77.1883C73.4841 76.5151 72.6298 76.2854 71.9631 76.6734C71.2951 77.0621 71.0673 77.9218 71.4522 78.5952L72.0377 79.6179C69.1608 81.0816 65.9584 81.9859 62.5691 82.1816V80.994C62.5691 80.2173 61.944 79.5872 61.1734 79.5872C60.4029 79.5872 59.7777 80.2173 59.7777 80.994V82.1816C56.3884 81.9859 53.1862 81.0823 50.3091 79.6179L50.8946 78.5952C51.2802 77.9219 51.0517 77.0615 50.3838 76.6734C49.7164 76.2847 48.8621 76.5151 48.4771 77.1883L47.8929 78.2084C45.1392 76.3783 42.7776 73.9985 40.9625 71.2229L41.9752 70.6334C42.6426 70.2447 42.8717 69.3849 42.4861 68.7116C42.1005 68.0383 41.2482 67.8073 40.5795 68.1966L39.5642 68.7875C38.1121 65.8876 37.2149 62.6598 37.0208 59.2435H38.199C38.9702 59.2435 39.5947 58.6134 39.5947 57.8367C39.5947 57.06 38.9702 56.4299 38.199 56.4299H37.0208C37.2149 53.0137 38.112 49.786 39.5642 46.886L40.5795 47.4761C40.7996 47.6044 41.0391 47.6646 41.276 47.6646C41.7583 47.6646 42.2277 47.4127 42.4867 46.9612C42.8723 46.2879 42.6432 45.4275 41.9758 45.0387L40.9638 44.4498C42.7795 41.6749 45.1405 39.2945 47.8935 37.465L48.4777 38.4858C48.7361 38.9366 49.2054 39.1898 49.6871 39.1898C49.924 39.1898 50.1642 39.129 50.3843 39.0014C51.0523 38.6127 51.2801 37.7523 50.8952 37.0789L50.3096 36.0555C53.1866 34.5912 56.389 33.6868 59.7783 33.4919V34.6794C59.7783 35.4568 60.4034 36.0862 61.1739 36.0862C61.9445 36.0862 62.5696 35.4568 62.5696 34.6794V33.4919C65.9589 33.6875 69.1611 34.5918 72.0383 36.0555L71.4521 37.0789C71.0665 37.7515 71.295 38.6126 71.963 39.0007C72.183 39.1289 72.4226 39.1898 72.6602 39.1898C73.1418 39.1898 73.6118 38.9372 73.8695 38.4857L74.4544 37.465C77.2081 39.2952 79.5697 41.6749 81.3847 44.4505L80.3727 45.0394C79.7047 45.428 79.4769 46.2878 79.8618 46.9612C80.1202 47.4127 80.5895 47.6646 81.0712 47.6646C81.3082 47.6646 81.5483 47.6044 81.7684 47.4761L82.783 46.8859C84.2352 49.7858 85.1324 53.0136 85.3265 56.4299H84.1483C83.3777 56.4299 82.7526 57.06 82.7526 57.8367C82.7526 58.6134 83.3777 59.2435 84.1483 59.2435H85.3265C85.1324 62.6591 84.2352 65.8868 82.783 68.7868L82.7833 68.7868ZM61.1728 41.4683C52.2183 41.4683 44.9335 48.8111 44.9335 57.8368C44.9335 66.8625 52.2183 74.206 61.1728 74.206C70.1273 74.206 77.4127 66.8632 77.4127 57.8368C77.4127 48.8111 70.1273 41.4683 61.1728 41.4683V41.4683ZM61.1728 71.3915C53.7575 71.3915 47.7249 65.3109 47.7249 57.8366C47.7249 50.3623 53.7575 44.2824 61.1728 44.2824C68.5881 44.2824 74.6207 50.363 74.6207 57.8366C74.6207 65.3102 68.5881 71.3915 61.1728 71.3915ZM61.1728 45.4918C54.4196 45.4918 48.9246 51.0299 48.9246 57.8375C48.9246 64.6444 54.4189 70.1832 61.1728 70.1832C67.926 70.1832 73.421 64.6451 73.421 57.8375C73.421 51.0299 67.9267 45.4918 61.1728 45.4918ZM62.5691 48.4218C65.6663 48.887 68.2725 50.865 69.6261 53.5897L65.8169 54.8368C65.0775 53.6787 63.9245 52.8169 62.5691 52.4591V48.4218ZM63.9031 57.8375C63.9031 59.3542 62.6782 60.5896 61.1727 60.5896C59.668 60.5896 58.4437 59.3549 58.4437 57.8375C58.4437 56.3207 59.668 55.0867 61.1727 55.0867C62.6781 55.0867 63.9031 56.3201 63.9031 57.8375ZM59.7771 48.4218V52.4595C58.4217 52.8174 57.2694 53.6792 56.5301 54.8373L52.7201 53.5895C54.0736 50.8648 56.68 48.8862 59.7771 48.4216V48.4218ZM51.7166 57.8375C51.7166 57.3009 51.7717 56.7788 51.8561 56.2664L55.668 57.5149C55.6616 57.6222 55.6518 57.7288 55.6518 57.8381C55.6518 59.1755 56.1225 60.4036 56.9053 61.365L54.5509 64.6313C52.8039 62.9 51.7166 60.4954 51.7166 57.8374L51.7166 57.8375ZM61.1727 67.3689C59.5992 67.3689 58.1165 66.9737 56.8098 66.2853L59.1656 63.0169C59.7888 63.263 60.4639 63.4036 61.1727 63.4036C61.8816 63.4036 62.5574 63.2636 63.1806 63.0169L65.5364 66.2853C64.2296 66.9737 62.747 67.3689 61.1727 67.3689V67.3689ZM70.6289 57.8375C70.6289 60.4953 69.5416 62.8993 67.7947 64.63L65.4402 61.3643C66.223 60.4031 66.6943 59.175 66.6943 57.8375C66.6943 57.7282 66.6846 57.6215 66.6781 57.5142L70.4887 56.2664C70.5744 56.7788 70.6289 57.3009 70.6289 57.8375V57.8375Z" fill="black"/>
</svg>
