<svg width="50" height="50" viewBox="0 0 50 50" fill="none" xmlns="http://www.w3.org/2000/svg">
<path d="M46.2607 11.5622C38.7813 -0.000382402 23.5109 -3.43791 11.6685 3.74965C0.137786 10.9372 -3.60191 26.5623 3.87748 38.1249L4.50076 39.0624L2.00763 48.4375L11.3569 45.9375L12.2918 46.5625C16.3431 48.75 20.7061 50 25.0691 50C29.7437 50 34.4183 48.75 38.4697 46.25C50.0004 38.7499 53.4284 23.4373 46.2607 11.5622ZM39.7162 35.6249C38.4697 37.4999 36.9114 38.7499 34.73 39.0624C33.4834 39.0624 31.9252 39.6874 25.6924 37.1874C20.3945 34.6874 16.0315 30.6249 12.9151 25.9373C11.0452 23.7498 10.1103 20.9373 9.79866 18.1248C9.79866 15.6247 10.7336 13.4372 12.2918 11.8747C12.9151 11.2497 13.5384 10.9372 14.1616 10.9372H15.7198C16.3431 10.9372 16.9664 10.9372 17.2781 12.1872C17.9013 13.7497 19.4595 17.4998 19.4595 17.8123C19.7712 18.1248 19.7712 18.7498 19.4595 19.0623C19.7712 19.6873 19.4595 20.3123 19.1479 20.6248C18.8363 20.9373 18.5246 21.5623 18.213 21.8748C17.5897 22.1873 17.2781 22.8123 17.5897 23.4373C18.8363 25.3123 20.3945 27.1873 21.9527 28.7498C23.8225 30.3123 25.6924 31.5624 27.8739 32.4999C28.4971 32.8124 29.1204 32.8124 29.4321 32.1874C29.7437 31.5624 31.3019 29.9998 31.9252 29.3748C32.5485 28.7498 32.8601 28.7498 33.4834 29.0623L38.4697 31.5624C39.0929 31.8749 39.7162 32.1874 40.0279 32.4999C40.3395 33.4374 40.3395 34.6874 39.7162 35.6249Z" fill="black"/>
</svg>
