<svg width="28" height="44" viewBox="0 0 28 44" fill="none" xmlns="http://www.w3.org/2000/svg">
<path d="M24.8889 0H3.11111C2.28599 0 1.49467 0.327777 0.911224 0.911223C0.327777 1.49467 0 2.28599 0 3.11111V40.4444C0 41.2696 0.327777 42.0609 0.911224 42.6443C1.49467 43.2278 2.28599 43.5556 3.11111 43.5556H24.8889C25.714 43.5556 26.5053 43.2278 27.0888 42.6443C27.6722 42.0609 28 41.2696 28 40.4444V3.11111C28 2.28599 27.6722 1.49467 27.0888 0.911223C26.5053 0.327777 25.714 0 24.8889 0V0ZM3.11111 3.11111H24.8889V31.1111H3.11111V3.11111ZM3.11111 40.4444V34.2222H24.8889V40.4444H3.11111Z" fill="white"/>
<path d="M12.4445 35.7783H15.5556V38.8894H12.4445V35.7783Z" fill="white"/>
</svg>
