<svg width="30" height="30" viewBox="0 0 30 30" fill="none" xmlns="http://www.w3.org/2000/svg">
<path d="M29.7632 15C29.7632 6.7204 23.0958 0 14.8816 0C6.66734 0 0 6.7204 0 15C0 23.2796 6.66734 30 14.8816 30C23.0958 30 29.7632 23.2796 29.7632 15ZM28.98 15C28.98 22.8532 22.6727 29.2105 14.8816 29.2105C7.0905 29.2105 0.783311 22.8528 0.783311 15C0.783311 7.1472 7.09057 0.789474 14.8816 0.789474C22.6728 0.789474 28.98 7.1472 28.98 15ZM24.672 14.9879C24.6668 14.8918 24.6289 14.7946 24.5742 14.7288L18.3082 8.01833C18.1565 7.8589 17.9036 7.86386 17.7574 8.00621C17.6091 8.15077 17.5922 8.4096 17.7331 8.56131L23.375 14.6054H5.48282C5.26647 14.6054 5.09109 14.7822 5.09109 15.0003C5.09109 15.2184 5.26647 15.3951 5.48282 15.3951H23.375L17.7331 21.4395C17.5922 21.5913 17.6069 21.865 17.7574 22.007C17.908 22.1491 18.1442 22.1466 18.3082 21.9825L24.5742 15.2721C24.6488 15.1798 24.6769 15.0846 24.672 14.9885V14.9879Z" fill="#E9E9E9"/>
</svg>
