<svg width="38" height="38" viewBox="0 0 38 38" fill="none" xmlns="http://www.w3.org/2000/svg">
<path d="M38 22.9001V15.0999H34.2667C33.9 13.6332 33.3334 12.2332 32.5668 10.9332L35.2 8.29994L29.7001 2.79997L27.0668 5.4666C25.7669 4.69998 24.3668 4.13328 22.9001 3.76666V0H15.0999V3.73329C13.6332 4.09995 12.2332 4.66661 10.9332 5.43323L8.29994 2.79997L2.79997 8.29994L5.43323 10.9332C4.66661 12.2331 4.09991 13.6332 3.73329 15.0999H0V22.9001H3.73329C4.09995 24.3668 4.66661 25.7668 5.43323 27.0668L2.79997 29.7001L8.29994 35.2L10.9332 32.5668C12.2331 33.3334 13.6332 33.9001 15.0999 34.2667V38H22.9001V34.2667C24.3668 33.9 25.7668 33.3334 27.0668 32.5668L29.7001 35.2L35.2 29.7001L32.5668 27.0668C33.3334 25.7668 33.9001 24.3668 34.2667 22.9001H38ZM33.1001 22.1002C32.7334 23.8001 32.1001 25.3668 31.1668 26.8001L30.8668 27.2668L33.3334 29.7334L29.7335 33.3334L27.3001 30.9L26.8335 31.2C25.3668 32.1334 23.8002 32.7667 22.1335 33.1334L21.6002 33.2334V36.6666H16.4336V33.2L15.9003 33.1C14.2003 32.7333 12.6336 32.1 11.2003 31.1667L10.7336 30.8667L8.26699 33.3333L4.7004 29.7L7.13374 27.2666L6.83375 26.8C5.90042 25.3333 5.26714 23.7667 4.90044 22.1L4.80044 21.5667H1.33381V16.4334H4.80044L4.90044 15.9001C5.2671 14.2001 5.90042 12.6334 6.83375 11.2001L7.13374 10.7334L4.6671 8.2668L8.26706 4.66684L10.7004 7.10018L11.1671 6.80018C12.6337 5.86686 14.2003 5.23357 15.867 4.86687L16.4004 4.76688V1.33362H21.5336V4.83362L22.067 4.93362C23.7669 5.30028 25.3336 5.9336 26.767 6.86693L27.2336 7.16692L29.7003 4.66699L33.3002 8.26695L30.8669 10.7003L31.1669 11.167C32.1002 12.6336 32.7335 14.2002 33.1002 15.8669L33.2002 16.4003H36.6668V21.5335H33.2002L33.1001 22.1002Z" fill="black"/>
<path d="M18.9998 6.53406C12.1332 6.53406 6.53369 12.134 6.53369 19.0002C6.53369 25.8664 12.1336 31.4663 18.9998 31.4663C25.866 31.4663 31.466 25.8664 31.466 19.0002C31.466 12.134 25.866 6.53406 18.9998 6.53406ZM18.9998 30.1338C12.8666 30.1338 7.86701 25.1338 7.86701 19.001C7.86701 12.8681 12.8669 7.86814 18.9998 7.86814C25.1327 7.86814 30.1326 12.8681 30.1326 19.001C30.1326 25.1338 25.1327 30.1338 18.9998 30.1338Z" fill="black"/>
<path d="M19.6671 16.3331V8.59985H18.3338V16.3331C17.1338 16.6331 16.2339 17.6998 16.2339 18.9997C16.2339 20.4997 17.4672 21.7663 19.0005 21.7663C20.3004 21.7663 21.3671 20.8664 21.6671 19.6664H27.1003V18.3331H21.6671C21.4338 17.3664 20.6338 16.5664 19.6671 16.3331ZM19.0005 20.433C18.2339 20.433 17.5672 19.7997 17.5672 18.9997C17.5672 18.4664 17.8672 17.9997 18.3338 17.7331H19.6671C20.1338 17.9664 20.4338 18.4331 20.4338 18.9997C20.4338 19.7663 19.7671 20.433 19.0005 20.433Z" fill="black"/>
</svg>
