<svg width="49" height="49" viewBox="0 0 49 49" fill="none" xmlns="http://www.w3.org/2000/svg">
<path fill-rule="evenodd" clip-rule="evenodd" d="M14.2383 0.504721C16.8215 0.385802 17.6452 0.359375 24.2254 0.359375C30.8056 0.359375 31.6293 0.388004 34.2103 0.504721C36.7913 0.621439 38.553 1.03325 40.0946 1.63006C41.7088 2.24007 43.1733 3.19363 44.3845 4.42688C45.6178 5.63589 46.5691 7.09817 47.1769 8.7146C47.7759 10.2562 48.1856 12.0179 48.3045 14.5945C48.4234 17.1821 48.4498 18.0058 48.4498 24.5838C48.4498 31.164 48.4212 31.9877 48.3045 34.5709C48.1878 37.1475 47.7759 38.9092 47.1769 40.4508C46.5691 42.0674 45.6162 43.5321 44.3845 44.7429C43.1733 45.9762 41.7088 46.9275 40.0946 47.5353C38.553 48.1343 36.7913 48.544 34.2147 48.6629C31.6293 48.7818 30.8056 48.8082 24.2254 48.8082C17.6452 48.8082 16.8215 48.7796 14.2383 48.6629C11.6617 48.5462 9.89996 48.1343 8.3584 47.5353C6.7418 46.9274 5.2771 45.9745 4.06627 44.7429C2.83387 43.5332 1.88016 42.0692 1.27166 40.453C0.674856 38.9114 0.265243 37.1497 0.146323 34.5731C0.0274032 31.9855 0.000976562 31.1618 0.000976562 24.5838C0.000976562 18.0036 0.0296054 17.1799 0.146323 14.5989C0.263041 12.0179 0.674856 10.2562 1.27166 8.7146C1.88106 7.09835 2.8355 5.63438 4.06848 4.42467C5.27758 3.19253 6.74081 2.23885 8.3562 1.63006C9.89775 1.03325 11.6595 0.623641 14.2361 0.504721H14.2383ZM34.0143 4.86512C31.4597 4.7484 30.6933 4.72418 24.2254 4.72418C17.7575 4.72418 16.9911 4.7484 14.4365 4.86512C12.0735 4.97303 10.7919 5.36722 9.93739 5.69976C8.80766 6.1402 7.99944 6.66213 7.15159 7.50998C6.34787 8.29189 5.72935 9.24375 5.34136 10.2958C5.00883 11.1503 4.61463 12.4319 4.50672 14.7949C4.39 17.3495 4.36578 18.1159 4.36578 24.5838C4.36578 31.0517 4.39 31.8181 4.50672 34.3727C4.61463 36.7356 5.00883 38.0173 5.34136 38.8718C5.72895 39.9223 6.34778 40.8758 7.15159 41.6576C7.93337 42.4614 8.88694 43.0802 9.93739 43.4678C10.7919 43.8004 12.0735 44.1946 14.4365 44.3025C16.9911 44.4192 17.7553 44.4434 24.2254 44.4434C30.6955 44.4434 31.4597 44.4192 34.0143 44.3025C36.3772 44.1946 37.6589 43.8004 38.5134 43.4678C39.6431 43.0274 40.4514 42.5055 41.2992 41.6576C42.103 40.8758 42.7218 39.9223 43.1094 38.8718C43.442 38.0173 43.8362 36.7356 43.9441 34.3727C44.0608 31.8181 44.085 31.0517 44.085 24.5838C44.085 18.1159 44.0608 17.3495 43.9441 14.7949C43.8362 12.4319 43.442 11.1503 43.1094 10.2958C42.669 9.16605 42.1471 8.35784 41.2992 7.50998C40.5173 6.70633 39.5654 6.08781 38.5134 5.69976C37.6589 5.36722 36.3772 4.97303 34.0143 4.86512V4.86512ZM21.1313 32.0515C22.8593 32.7708 24.7834 32.8679 26.575 32.3262C28.3666 31.7845 29.9146 30.6375 30.9545 29.0813C31.9945 27.525 32.4618 25.656 32.2768 23.7934C32.0918 21.9309 31.2659 20.1903 29.9402 18.869C29.095 18.0244 28.0731 17.3777 26.9481 16.9755C25.823 16.5732 24.6227 16.4254 23.4337 16.5426C22.2446 16.6599 21.0964 17.0394 20.0716 17.6537C19.0468 18.268 18.1709 19.1019 17.5071 20.0953C16.8433 21.0888 16.4079 22.217 16.2325 23.3989C16.057 24.5808 16.1458 25.7869 16.4924 26.9303C16.839 28.0737 17.4348 29.1261 18.2369 30.0117C19.0391 30.8972 20.0276 31.5939 21.1313 32.0515ZM15.4209 15.7793C16.5771 14.6231 17.9498 13.7059 19.4605 13.0802C20.9711 12.4545 22.5903 12.1324 24.2254 12.1324C25.8605 12.1324 27.4797 12.4545 28.9903 13.0802C30.501 13.7059 31.8737 14.6231 33.0299 15.7793C34.1861 16.9355 35.1033 18.3082 35.729 19.8188C36.3547 21.3295 36.6768 22.9487 36.6768 24.5838C36.6768 26.2189 36.3547 27.8381 35.729 29.3487C35.1033 30.8594 34.1861 32.2321 33.0299 33.3883C30.6948 35.7234 27.5277 37.0352 24.2254 37.0352C20.9231 37.0352 17.756 35.7234 15.4209 33.3883C13.0858 31.0532 11.774 27.8861 11.774 24.5838C11.774 21.2815 13.0858 18.1144 15.4209 15.7793V15.7793ZM39.4383 13.9867C39.7249 13.7164 39.9542 13.3914 40.1129 13.0309C40.2715 12.6704 40.3562 12.2817 40.362 11.8878C40.3677 11.494 40.2944 11.103 40.1463 10.738C39.9982 10.373 39.7784 10.0415 39.4999 9.76294C39.2214 9.48442 38.8898 9.26462 38.5248 9.11654C38.1598 8.96847 37.7689 8.89513 37.375 8.90087C36.9812 8.90661 36.5925 8.99132 36.232 9.14997C35.8714 9.30862 35.5464 9.538 35.2761 9.82452C34.7505 10.3817 34.4627 11.1219 34.4739 11.8878C34.485 12.6538 34.7943 13.3852 35.3359 13.9269C35.8776 14.4686 36.6091 14.7778 37.375 14.789C38.141 14.8001 38.8811 14.5124 39.4383 13.9867V13.9867Z" fill="black"/>
</svg>
