<svg width="49" height="35" viewBox="0 0 49 35" fill="none" xmlns="http://www.w3.org/2000/svg">
<path d="M44.9882 0.623535H3.46063C2.54282 0.623535 1.66259 0.980844 1.0136 1.61686C0.364601 2.25287 0 3.11549 0 4.01495V31.1463C0 32.0458 0.364601 32.9084 1.0136 33.5444C1.66259 34.1804 2.54282 34.5377 3.46063 34.5377H44.9882C45.906 34.5377 46.7863 34.1804 47.4352 33.5444C48.0842 32.9084 48.4488 32.0458 48.4488 31.1463V4.01495C48.4488 3.11549 48.0842 2.25287 47.4352 1.61686C46.7863 0.980844 45.906 0.623535 44.9882 0.623535V0.623535ZM41.1815 4.01495L24.2244 15.5119L7.26733 4.01495H41.1815ZM3.46063 31.1463V5.55805L23.2381 18.9711C23.5278 19.168 23.8719 19.2736 24.2244 19.2736C24.5769 19.2736 24.9211 19.168 25.2107 18.9711L44.9882 5.55805V31.1463H3.46063Z" fill="black"/>
</svg>
