<svg width="53" height="53" viewBox="0 0 53 53" fill="none" xmlns="http://www.w3.org/2000/svg">
<path d="M23.1088 12.9673L15.3234 3.98122C14.4259 2.94569 12.7805 2.95029 11.738 3.99503L5.33577 10.4084C3.43029 12.3161 2.88488 15.1489 3.98721 17.4201C10.5727 31.0546 21.5693 42.066 35.1952 48.6702C37.4643 49.7724 40.2949 49.2271 42.2004 47.3194L48.6625 40.8462C49.7096 39.7991 49.7119 38.1446 48.6671 37.2471L39.646 29.5036C38.7024 28.6936 37.2365 28.7995 36.2907 29.7476L33.1517 32.891C32.991 33.0594 32.7794 33.1704 32.5495 33.207C32.3196 33.2436 32.0841 33.2037 31.8791 33.0935C26.7482 30.139 22.492 25.8775 19.544 20.743C19.4336 20.5377 19.3937 20.3017 19.4303 20.0714C19.4668 19.8412 19.578 19.6292 19.7466 19.4682L22.8763 16.3363C23.8245 15.3836 23.928 13.9131 23.1088 12.9673Z" stroke="black" stroke-width="6.05611" stroke-linecap="round" stroke-linejoin="round"/>
</svg>
