<svg width="36" height="53" viewBox="0 0 36 53" fill="none" xmlns="http://www.w3.org/2000/svg">
<path d="M32.2026 0H5.82488C4.82548 0 3.86702 0.39701 3.16033 1.10369C2.45365 1.81038 2.05664 2.76884 2.05664 3.76824V48.9872C2.05664 49.9866 2.45365 50.945 3.16033 51.6517C3.86702 52.3584 4.82548 52.7554 5.82488 52.7554H32.2026C33.202 52.7554 34.1605 52.3584 34.8671 51.6517C35.5738 50.945 35.9708 49.9866 35.9708 48.9872V3.76824C35.9708 2.76884 35.5738 1.81038 34.8671 1.10369C34.1605 0.39701 33.202 0 32.2026 0V0ZM5.82488 3.76824H32.2026V37.6824H5.82488V3.76824ZM5.82488 48.9872V41.4507H32.2026V48.9872H5.82488Z" fill="black"/>
<path d="M0.664062 42.8535H4.43231V46.6218H0.664062V42.8535Z" fill="black"/>
</svg>
