<svg width="40" height="59" viewBox="0 0 40 59" fill="none" xmlns="http://www.w3.org/2000/svg">
<path d="M19.7625 52.1333C21.2019 52.1333 24.634 48.2657 27.7037 41.3417C30.8196 34.3233 32.9375 25.6561 32.9375 20.7002C32.9375 12.7857 26.9528 6.51667 19.7625 6.51667C12.5722 6.51667 6.5875 12.7857 6.5875 20.7002C6.5875 25.6529 8.70538 34.3233 11.8213 41.3417C14.8877 48.2657 18.3231 52.1333 19.7625 52.1333ZM19.7625 58.65C8.84701 58.65 0 32.1337 0 20.7002C0 9.2667 8.84701 0 19.7625 0C30.678 0 39.525 9.2667 39.525 20.7002C39.525 32.1337 30.678 58.65 19.7625 58.65ZM19.7625 26.0667C21.5096 26.0667 23.1852 25.3801 24.4206 24.158C25.656 22.9359 26.35 21.2783 26.35 19.55C26.35 17.8217 25.656 16.1641 24.4206 14.942C23.1852 13.7199 21.5096 13.0333 19.7625 13.0333C18.0154 13.0333 16.3398 13.7199 15.1044 14.942C13.869 16.1641 13.175 17.8217 13.175 19.55C13.175 21.2783 13.869 22.9359 15.1044 24.158C16.3398 25.3801 18.0154 26.0667 19.7625 26.0667Z" fill="black"/>
</svg>
