<svg width="31" height="46" viewBox="0 0 31 46" fill="none" xmlns="http://www.w3.org/2000/svg">
<path d="M15.5 40.8889C16.6289 40.8889 19.3207 37.8554 21.7284 32.4249C24.1722 26.9202 25.8333 20.1224 25.8333 16.2354C25.8333 10.028 21.1394 5.11111 15.5 5.11111C9.86058 5.11111 5.16667 10.028 5.16667 16.2354C5.16667 20.1199 6.82775 26.9202 9.27158 32.4249C11.6767 37.8554 14.3711 40.8889 15.5 40.8889ZM15.5 46C6.93883 46 0 25.2029 0 16.2354C0 7.268 6.93883 0 15.5 0C24.0612 0 31 7.268 31 16.2354C31 25.2029 24.0612 46 15.5 46ZM15.5 20.4444C16.8703 20.4444 18.1844 19.906 19.1534 18.9474C20.1223 17.9889 20.6667 16.6889 20.6667 15.3333C20.6667 13.9778 20.1223 12.6778 19.1534 11.7192C18.1844 10.7607 16.8703 10.2222 15.5 10.2222C14.1297 10.2222 12.8156 10.7607 11.8466 11.7192C10.8777 12.6778 10.3333 13.9778 10.3333 15.3333C10.3333 16.6889 10.8777 17.9889 11.8466 18.9474C12.8156 19.906 14.1297 20.4444 15.5 20.4444Z" fill="white"/>
</svg>
