<svg width="38" height="38" viewBox="0 0 38 38" fill="none" xmlns="http://www.w3.org/2000/svg">
<path d="M34.8806 8.78728C29.2411 -0.000290625 17.7272 -2.61281 8.79806 2.84973C0.103891 8.31227 -2.71584 20.1874 2.92362 28.9749L3.39358 29.6874L1.51376 36.8125L8.56308 34.9125L9.26802 35.3875C12.3227 37.05 15.6124 38 18.9021 38C22.4268 38 25.9514 37.05 29.0061 35.15C37.7003 29.4499 40.285 17.8123 34.8806 8.78728ZM29.946 27.0749C29.0061 28.4999 27.8312 29.4499 26.1864 29.6874C25.2465 29.6874 24.0716 30.1624 19.372 28.2624C15.3774 26.3624 12.0877 23.2749 9.73797 19.7124C8.3281 18.0498 7.62317 15.9123 7.3882 13.7748C7.3882 11.8748 8.09313 10.2123 9.26802 9.02478C9.73797 8.54978 10.2079 8.31227 10.6779 8.31227H11.8528C12.3227 8.31227 12.7927 8.31227 13.0277 9.26228C13.4976 10.4498 14.6725 13.2998 14.6725 13.5373C14.9075 13.7748 14.9075 14.2498 14.6725 14.4873C14.9075 14.9623 14.6725 15.4373 14.4375 15.6748C14.2025 15.9123 13.9676 16.3873 13.7326 16.6248C13.2626 16.8623 13.0277 17.3373 13.2626 17.8123C14.2025 19.2374 15.3774 20.6624 16.5523 21.8499C17.9622 23.0374 19.372 23.9874 21.0169 24.6999C21.4868 24.9374 21.9568 24.9374 22.1918 24.4624C22.4268 23.9874 23.6016 22.7999 24.0716 22.3249C24.5416 21.8499 24.7765 21.8499 25.2465 22.0874L29.0061 23.9874C29.4761 24.2249 29.946 24.4624 30.181 24.6999C30.416 25.4124 30.416 26.3624 29.946 27.0749Z" fill="#E89128"/>
</svg>
